<?xml version="1.0" encoding="utf-8"?>
<!-- Generator: Adobe Illustrator 23.0.2, SVG Export Plug-In . SVG Version: 6.00 Build 0)  -->
<svg version="1.1" id="Layer_1" xmlns="http://www.w3.org/2000/svg" xmlns:xlink="http://www.w3.org/1999/xlink" x="0px" y="0px"
	 viewBox="0 0 190.7 33.9" style="enable-background:new 0 0 190.7 33.9;" xml:space="preserve">
<style type="text/css">
	.st0{fill-rule:evenodd;clip-rule:evenodd;fill:#313E52;}
	.st1{filter:url(#Adobe_OpacityMaskFilter);}
	.st2{fill-rule:evenodd;clip-rule:evenodd;fill:#FFFFFF;}
	.st3{mask:url(#mask-2_2_);fill-rule:evenodd;clip-rule:evenodd;fill:#313E52;}
	.st4{fill-rule:evenodd;clip-rule:evenodd;fill:#00CA96;}
	.st5{fill-rule:evenodd;clip-rule:evenodd;fill:#4484FF;}
	.st6{fill-rule:evenodd;clip-rule:evenodd;fill:#87D3D5;}
</style>
<g id="Page-1_1_" transform="translate(24.000000, 46.000000)">
	<path id="Fill-1_1_" class="st0" d="M31.4-23h-2v6.7h-2.3V-23h-1.3v-1.1l1.3-0.6v-0.6c0-1,0.2-1.7,0.7-2.1c0.5-0.4,1.2-0.7,2.3-0.7
		c0.8,0,1.5,0.1,2.1,0.4L31.6-26c-0.5-0.1-0.9-0.2-1.3-0.2c-0.3,0-0.6,0.1-0.7,0.3c-0.1,0.2-0.2,0.4-0.2,0.7v0.5h2V-23z"/>
	<path id="Fill-3_1_" class="st0" d="M36.2-23.2c-0.5,0-0.9,0.2-1.1,0.5c-0.3,0.3-0.4,0.7-0.5,1.3h3.2c0-0.6-0.2-1-0.4-1.3
		C37.1-23.1,36.7-23.2,36.2-23.2 M36.5-16.1c-1.4,0-2.4-0.4-3.2-1.1c-0.8-0.7-1.1-1.8-1.1-3.2c0-1.4,0.4-2.5,1.1-3.3
		c0.7-0.8,1.7-1.2,2.9-1.2c1.2,0,2.1,0.3,2.8,1c0.7,0.7,1,1.6,1,2.8v1.1h-5.4c0,0.7,0.2,1.2,0.6,1.5c0.4,0.4,0.9,0.5,1.5,0.5
		c0.5,0,1-0.1,1.4-0.2c0.5-0.1,0.9-0.3,1.4-0.5v1.8c-0.4,0.2-0.8,0.3-1.3,0.4C37.7-16.2,37.2-16.1,36.5-16.1"/>
	<path id="Fill-5_1_" class="st0" d="M45.3-23.2c-0.5,0-0.9,0.2-1.1,0.5c-0.3,0.3-0.4,0.7-0.5,1.3h3.2c0-0.6-0.2-1-0.4-1.3
		C46.2-23.1,45.8-23.2,45.3-23.2 M45.6-16.1c-1.4,0-2.4-0.4-3.2-1.1c-0.8-0.7-1.1-1.8-1.1-3.2c0-1.4,0.4-2.5,1.1-3.3
		c0.7-0.8,1.7-1.2,2.9-1.2c1.2,0,2.1,0.3,2.8,1c0.7,0.7,1,1.6,1,2.8v1.1h-5.4c0,0.7,0.2,1.2,0.6,1.5c0.4,0.4,0.9,0.5,1.5,0.5
		c0.5,0,1-0.1,1.4-0.2c0.5-0.1,0.9-0.3,1.4-0.5v1.8c-0.4,0.2-0.8,0.3-1.3,0.4C46.8-16.2,46.3-16.1,45.6-16.1"/>
	<path id="Fill-7_1_" class="st0" d="M54.4-18c0.6,0,1-0.2,1.3-0.5c0.3-0.3,0.4-0.9,0.4-1.7v-0.2c0-0.9-0.1-1.5-0.4-1.9
		C55.4-22.8,55-23,54.3-23c-0.5,0-0.9,0.2-1.2,0.6c-0.3,0.4-0.4,1.1-0.4,1.9s0.1,1.4,0.4,1.9C53.4-18.2,53.8-18,54.4-18 M53.6-16.1
		c-1,0-1.8-0.4-2.3-1.1c-0.6-0.8-0.8-1.8-0.8-3.2c0-1.4,0.3-2.4,0.9-3.2c0.6-0.8,1.4-1.2,2.4-1.2c1.1,0,1.9,0.4,2.4,1.2h0.1
		C56-24.2,56-24.8,56-25.3V-28h2.3v11.7h-1.8l-0.4-1.1H56C55.4-16.6,54.6-16.1,53.6-16.1"/>
	<path id="Fill-9_1_" class="st0" d="M64.6-23c-0.6,0-1,0.2-1.2,0.5c-0.3,0.3-0.4,0.9-0.4,1.7v0.2c0,0.9,0.1,1.5,0.4,1.9
		c0.3,0.4,0.7,0.6,1.3,0.6c0.5,0,0.8-0.2,1.1-0.6c0.3-0.4,0.4-1.1,0.4-1.9c0-0.8-0.1-1.4-0.4-1.9C65.5-22.8,65.1-23,64.6-23
		 M65.3-24.8c1,0,1.8,0.4,2.3,1.2c0.6,0.8,0.8,1.8,0.8,3.2c0,1.4-0.3,2.5-0.9,3.2c-0.6,0.8-1.4,1.1-2.4,1.1c-1,0-1.8-0.4-2.3-1.1
		h-0.2l-0.4,0.9h-1.8V-28H63v2.7c0,0.3,0,0.9-0.1,1.7H63C63.5-24.4,64.3-24.8,65.3-24.8"/>
	<path id="Fill-11_1_" class="st0" d="M75.1-20.2l-0.9,0c-0.7,0-1.2,0.1-1.5,0.4c-0.3,0.2-0.5,0.6-0.5,1c0,0.6,0.4,1,1.1,1
		c0.5,0,1-0.2,1.3-0.5c0.3-0.3,0.5-0.7,0.5-1.2V-20.2z M75.8-16.3l-0.4-1.1h-0.1c-0.4,0.5-0.8,0.8-1.2,1c-0.4,0.2-0.9,0.3-1.6,0.3
		c-0.8,0-1.4-0.2-1.9-0.7c-0.5-0.5-0.7-1.1-0.7-2c0-0.9,0.3-1.5,0.9-2c0.6-0.4,1.6-0.7,2.8-0.7l1.5,0v-0.4c0-0.9-0.4-1.3-1.3-1.3
		c-0.7,0-1.5,0.2-2.4,0.6l-0.8-1.5c1-0.5,2-0.8,3.2-0.8c1.1,0,2,0.2,2.6,0.7c0.6,0.5,0.9,1.2,0.9,2.2v5.6H75.8z"/>
	<path id="Fill-13_1_" class="st0" d="M83.1-16.1c-2.6,0-3.9-1.4-3.9-4.3c0-1.4,0.4-2.5,1.1-3.3c0.7-0.8,1.7-1.1,3.1-1.1
		c1,0,1.8,0.2,2.6,0.6l-0.7,1.8c-0.4-0.1-0.7-0.3-1-0.4C84-22.9,83.7-23,83.3-23c-1.2,0-1.8,0.8-1.8,2.5c0,1.6,0.6,2.5,1.8,2.5
		c0.4,0,0.9-0.1,1.2-0.2c0.4-0.1,0.8-0.3,1.1-0.6v2c-0.4,0.2-0.7,0.4-1.1,0.5C84.2-16.2,83.7-16.1,83.1-16.1"/>
	<g id="Group-17_1_" transform="translate(150.661355, 3.728721)">
		<g id="Clip-16_1_">
		</g>
		<defs>
			<filter id="Adobe_OpacityMaskFilter" filterUnits="userSpaceOnUse" x="-63" y="-31.7" width="8.4" height="11.7">
				<feColorMatrix  type="matrix" values="1 0 0 0 0  0 1 0 0 0  0 0 1 0 0  0 0 0 1 0"/>
			</filter>
		</defs>
		<mask maskUnits="userSpaceOnUse" x="-63" y="-31.7" width="8.4" height="11.7" id="mask-2_2_">
			<g class="st1">
				<polygon id="path-1_2_" class="st2" points="-54.7,-20 -54.7,-31.7 -63,-31.7 -63,-20 				"/>
			</g>
		</mask>
		<polygon id="Fill-15_1_" class="st3" points="-60.8,-24.6 -59.8,-25.9 -57.5,-28.4 -54.9,-28.4 -58.2,-24.8 -54.7,-20 -57.3,-20 
			-59.7,-23.4 -60.7,-22.6 -60.7,-20 -63,-20 -63,-31.7 -60.7,-31.7 -60.7,-26.5 -60.8,-24.6 		"/>
	</g>
	<path id="Fill-18_1_" class="st0" d="M105.2-16.3c-1.2,0-2.1-0.4-2.8-1.1c-0.7-0.7-1-1.8-1-3.1c0-1.4,0.3-2.4,1-3.2
		c0.7-0.8,1.6-1.1,2.8-1.1c0.4,0,0.8,0,1.2,0.1s0.7,0.2,0.9,0.3l-0.4,1.1c-0.3-0.1-0.6-0.2-0.9-0.3c-0.3-0.1-0.6-0.1-0.9-0.1
		c-1.7,0-2.5,1.1-2.5,3.2c0,1,0.2,1.8,0.6,2.3c0.4,0.5,1,0.8,1.8,0.8c0.7,0,1.4-0.1,2.1-0.4v1.1C106.7-16.5,106-16.3,105.2-16.3"/>
	<path id="Fill-20_1_" class="st0" d="M110-20.6c0,1.1,0.2,1.9,0.6,2.4c0.4,0.6,1,0.8,1.9,0.8c0.8,0,1.4-0.3,1.9-0.8
		c0.4-0.5,0.6-1.3,0.6-2.4c0-1-0.2-1.8-0.6-2.4c-0.4-0.5-1-0.8-1.9-0.8c-0.8,0-1.4,0.3-1.9,0.8C110.2-22.5,110-21.7,110-20.6
		 M116.3-20.6c0,1.3-0.3,2.4-1,3.1c-0.7,0.8-1.6,1.1-2.8,1.1c-0.7,0-1.4-0.2-2-0.5c-0.6-0.3-1-0.8-1.3-1.5c-0.3-0.6-0.5-1.4-0.5-2.3
		c0-1.3,0.3-2.4,1-3.1s1.6-1.1,2.8-1.1c1.2,0,2.1,0.4,2.8,1.1C116-22.9,116.3-21.9,116.3-20.6"/>
	<path id="Fill-22_1_" class="st0" d="M129-16.5v-5.4c0-0.7-0.1-1.1-0.4-1.5c-0.3-0.3-0.7-0.5-1.3-0.5c-0.8,0-1.4,0.2-1.7,0.7
		c-0.4,0.4-0.6,1.1-0.6,2.1v4.6h-1.2v-5.4c0-0.7-0.1-1.1-0.4-1.5c-0.3-0.3-0.7-0.5-1.3-0.5c-0.8,0-1.4,0.2-1.7,0.7
		c-0.4,0.5-0.5,1.2-0.5,2.3v4.3h-1.2v-8.2h1l0.2,1.1h0.1c0.2-0.4,0.6-0.7,1-0.9c0.4-0.2,0.9-0.3,1.4-0.3c1.3,0,2.1,0.5,2.5,1.4h0.1
		c0.2-0.4,0.6-0.8,1.1-1c0.5-0.2,1-0.4,1.6-0.4c0.9,0,1.6,0.2,2.1,0.7c0.5,0.5,0.7,1.2,0.7,2.3v5.4H129z"/>
	<path id="Fill-24_1_" class="st0" d="M136.5-23.8c-0.8,0-1.5,0.2-1.8,0.7c-0.4,0.5-0.6,1.2-0.6,2.2v0.3c0,1.2,0.2,2,0.6,2.5
		c0.4,0.5,1,0.7,1.9,0.7c0.7,0,1.3-0.3,1.7-0.9c0.4-0.6,0.6-1.4,0.6-2.4c0-1-0.2-1.8-0.6-2.4C137.8-23.5,137.2-23.8,136.5-23.8
		 M136.7-16.3c-0.5,0-1-0.1-1.5-0.3c-0.4-0.2-0.8-0.5-1.1-0.9H134c0.1,0.5,0.1,0.9,0.1,1.4v3.4h-1.2v-11.9h1l0.2,1.1h0.1
		c0.3-0.5,0.7-0.8,1.1-1c0.4-0.2,0.9-0.3,1.5-0.3c1.1,0,1.9,0.4,2.5,1.1c0.6,0.7,0.9,1.8,0.9,3.1c0,1.4-0.3,2.4-0.9,3.1
		C138.6-16.7,137.7-16.3,136.7-16.3"/>
	<path id="Fill-26_1_" class="st0" d="M144.5-17.4c0.8,0,1.4-0.2,1.8-0.6c0.4-0.4,0.7-1,0.7-1.8v-0.7l-1.2,0.1c-1,0-1.7,0.2-2.1,0.5
		c-0.4,0.3-0.7,0.7-0.7,1.3c0,0.5,0.1,0.8,0.4,1C143.7-17.5,144-17.4,144.5-17.4L144.5-17.4z M147.3-16.5l-0.2-1.2H147
		c-0.4,0.5-0.8,0.9-1.2,1c-0.4,0.2-0.9,0.3-1.5,0.3c-0.8,0-1.5-0.2-1.9-0.6c-0.5-0.4-0.7-1-0.7-1.8c0-1.7,1.3-2.5,4-2.6l1.4,0v-0.5
		c0-0.6-0.1-1.1-0.4-1.4c-0.3-0.3-0.7-0.5-1.3-0.5c-0.7,0-1.5,0.2-2.3,0.6l-0.4-1c0.4-0.2,0.9-0.4,1.3-0.5c0.5-0.1,1-0.2,1.5-0.2
		c1,0,1.7,0.2,2.2,0.7c0.5,0.4,0.7,1.1,0.7,2.1v5.6H147.3z"/>
	<path id="Fill-28_1_" class="st0" d="M156.5-16.5v-5.3c0-0.7-0.2-1.2-0.5-1.5c-0.3-0.3-0.8-0.5-1.4-0.5c-0.9,0-1.5,0.2-1.9,0.7
		c-0.4,0.5-0.6,1.2-0.6,2.3v4.3h-1.2v-8.2h1l0.2,1.1h0.1c0.3-0.4,0.6-0.7,1.1-0.9c0.5-0.2,1-0.3,1.5-0.3c1,0,1.7,0.2,2.2,0.7
		c0.5,0.5,0.8,1.2,0.8,2.3v5.4H156.5z"/>
	<path id="Fill-30_1_" class="st0" d="M159-24.7h1.3l1.8,4.7c0.4,1.1,0.6,1.8,0.7,2.3h0.1c0.1-0.3,0.2-0.7,0.4-1.3
		c0.2-0.6,0.9-2.5,2-5.7h1.3l-3.5,9.4c-0.4,0.9-0.8,1.6-1.2,2c-0.5,0.4-1,0.6-1.7,0.6c-0.4,0-0.8,0-1.1-0.1v-1
		c0.3,0.1,0.6,0.1,0.9,0.1c0.9,0,1.5-0.5,1.8-1.4l0.5-1.2L159-24.7z"/>
	<path id="Fill-32_1_" class="st4" d="M-3-43.9c-0.6,0-1.1,0.5-1.1,1.1V-31c0,0.6,0.5,1.1,1.1,1.1h8.6c0.2,0,0.4,0.1,0.6,0.2
		l3.7,2.5v-15.5c0-0.6-0.5-1.1-1.1-1.1H-3z M10.9-24.3c-0.2,0-0.4-0.1-0.6-0.2l-5.1-3.4H-3c-1.8,0-3.2-1.4-3.2-3.2v-11.8
		c0-1.8,1.4-3.2,3.2-3.2H8.7c1.8,0,3.2,1.4,3.2,3.2v17.4c0,0.4-0.2,0.8-0.6,0.9C11.2-24.4,11.1-24.3,10.9-24.3L10.9-24.3z"/>
	<path id="Fill-34_1_" class="st5" d="M-14.4-12.1c-0.2,0-0.3,0-0.5-0.1c-0.3-0.2-0.6-0.5-0.6-0.9v-15.2c0-1.8,1.4-3.2,3.2-3.2h1.8
		c0.6,0,1.1,0.5,1.1,1.1c0,0.6-0.5,1.1-1.1,1.1h-1.8c-0.6,0-1.1,0.5-1.1,1.1v13.2l3.1-2c0.2-0.1,0.4-0.2,0.6-0.2h7.3
		c0.6,0,1.1-0.5,1.1-1.1v-5.1c0-0.6,0.5-1.1,1.1-1.1c0.6,0,1.1,0.5,1.1,1.1v5.1c0,1.8-1.4,3.2-3.2,3.2h-7l-4.5,3
		C-14-12.2-14.2-12.1-14.4-12.1"/>
	<path id="Fill-36_1_" class="st6" d="M-18.3-25.1c0.2,0.5,0.1,1-0.4,1.3l-3.7,2.5c-0.2,0.1-0.4,0.2-0.6,0.2c-0.2,0-0.3,0-0.5-0.1
		c-0.3-0.2-0.6-0.5-0.6-0.9v-15.2c0-1.8,1.4-3.2,3.2-3.2h10.4c0.6,0,1.1,0.4,1.1,1c0.1,0.6-0.4,1.2-1.1,1.2h-10.4
		c-0.6,0-1.1,0.5-1.1,1.1v13.2l2.1-1.4C-19.3-25.9-18.5-25.7-18.3-25.1"/>
</g>
</svg>
