<?xml version="1.0" encoding="utf-8"?>
<!-- Generator: Adobe Illustrator 23.0.2, SVG Export Plug-In . SVG Version: 6.00 Build 0)  -->
<svg version="1.1" id="Layer_1" xmlns="http://www.w3.org/2000/svg" xmlns:xlink="http://www.w3.org/1999/xlink" x="0px" y="0px"
	 viewBox="0 0 314.6 135.2" style="enable-background:new 0 0 314.6 135.2;" xml:space="preserve">
<style type="text/css">
	.st0{fill:#FFFFFF;}
	.st1{clip-path:url(#SVGID_2_);fill:#0093CD;}
	.st2{clip-path:url(#SVGID_4_);fill:#0093CD;}
	.st3{fill:#0093CD;}
	.st4{fill:#111617;}
	.st5{fill:#595E5E;}
	.st6{clip-path:url(#SVGID_6_);fill:#FFFFFF;}
	.st7{clip-path:url(#SVGID_8_);fill:#00ADE5;}
	.st8{fill:#00ADE5;}
</style>
<g>
	<g>
		<path class="st0" d="M109.1,69.3c0.3,0,0.6,0,1,0c3.8,0.1,16.6,3.9,14.9,9.5c-1.1,4.1-18.8,12.2-40.1,17.9
			c-4.8,8.2-14.2,24.5-16,27.5c-2,3.4-3.2,4.1-3.2,4.1s-8.3,2.9-9.6,2.9c0,0-0.1,0-0.1,0c-1-0.2-0.6-1.5-0.6-1.5s4.7-18,7.1-28.2
			c-6.9,1.1-13.7,1.7-20,1.7c-4.6,0-9.1-0.3-13.1-1.1c-3.6-0.7-6.1-2.4-8.1-3.2c-2.6-1.1-15.3-24-15.3-24l5.4-1.3l19.1,12
			c2.3,0.1,4.6,0.2,6.8,0.2C71.8,85.8,92.1,69.3,109.1,69.3 M109.1,65.3c-7.7,0-15.7,3-24.9,6.4c-12.8,4.8-27.3,10.2-46.8,10.2
			c-1.8,0-3.7,0-5.5-0.1L13.6,70.2l-1.4-0.9l-1.6,0.4L5.1,71L0,72.2l2.6,4.6c13.4,24.1,16,25.2,17.2,25.7c0.4,0.2,1,0.5,1.6,0.8
			c1.8,0.9,4.2,2.1,7.3,2.7c4.1,0.8,8.7,1.1,13.8,1.1c4.6,0,9.5-0.3,14.8-0.9c-2.5,9.9-5.7,22.3-5.7,22.5c-0.1,0.5-0.5,2.5,0.6,4.3
			c0.7,1.1,1.9,1.9,3.2,2.1c0.2,0,0.5,0.1,0.8,0.1c0.6,0,2,0,10.9-3.1l0.4-0.1l0.4-0.2c0.8-0.5,2.4-1.8,4.6-5.5
			c1.7-2.9,10.2-17.6,15.2-26.1c9.8-2.7,19.2-6,26.6-9.3c11.7-5.3,14-8.6,14.7-10.9c0.7-2.3,0.2-4.7-1.2-6.7
			c-3.7-5.2-13.9-7.8-17.4-7.9C109.9,65.3,109.5,65.3,109.1,65.3L109.1,65.3z"/>
	</g>
	<g>
		<g>
			<g>
				<g>
					<defs>
						<rect id="SVGID_1_" x="6.1" width="308.6" height="131.2"/>
					</defs>
					<clipPath id="SVGID_2_">
						<use xlink:href="#SVGID_1_"  style="overflow:visible;"/>
					</clipPath>
					<path class="st1" d="M50.5,61.4C50,61.2,49.9,61,49,60.9c0,0-0.1,0-0.2,0c-1.6,0-10.3,1.5-10.7,3.4
						c-0.2,1.1,19.6,17.8,19.6,17.8s10.3-2.4,17.1-4.6c0.9-0.3,1.8-0.6,2.7-0.9C77.3,76.4,50.9,61.7,50.5,61.4L50.5,61.4z"/>
				</g>
			</g>
			<g>
				<g>
					<defs>
						<rect id="SVGID_3_" x="6.1" width="308.6" height="131.2"/>
					</defs>
					<clipPath id="SVGID_4_">
						<use xlink:href="#SVGID_3_"  style="overflow:visible;"/>
					</clipPath>
					<path class="st2" d="M69.7,0C44,0,23.1,20.9,23.1,46.6c0,15.3,7.4,28.9,18.8,37.4c4.9-0.2,9.5-0.8,13.8-1.5
						c-1.7-1.4-5.3-4.5-8.9-7.7c-10.6-9.2-10.5-9.7-10.3-10.9c0.6-3.8,12.2-4.8,12.3-4.8c0.2,0,0.3,0,0.5,0c1.1,0.2,1.5,0.4,2,0.7
						l0.1,0.1c0.7,0.4,19.7,11,27.1,15.1l1.3,0.7c1.8-0.7,3.6-1.3,5.4-2c9-3.4,16.8-6.2,24.1-6.2c0.3,0,0.7,0,1,0
						c0.3,0,0.7,0.1,1.1,0.1c3.2-6.3,5.1-13.5,5.1-21.1C116.3,20.9,95.5,0,69.7,0L69.7,0z"/>
				</g>
			</g>
		</g>
		<path class="st3" d="M110.5,69.3c-0.1,0-0.3,0-0.4,0c-0.3,0-0.6,0-1,0c-15.9,0-34.6,14.4-65,16.3c7.3,4.8,16.1,7.6,25.6,7.6
			C87.2,93.2,102.5,83.6,110.5,69.3L110.5,69.3z"/>
		<polygon class="st4" points="133.1,34.8 122.5,8.1 127.3,8.1 135.5,29.8 143.8,8.1 148.5,8.1 137.7,34.8 		"/>
		<polygon class="st4" points="168.1,30.7 168.1,34.8 152.1,34.8 152.1,8.1 156.6,8.1 156.6,30.7 		"/>
		<polygon class="st4" points="172.4,34.8 172.4,8.1 176.9,8.1 176.9,34.8 		"/>
		<polygon class="st4" points="188.4,12.2 188.4,19.4 201.4,19.4 201.4,23.4 188.4,23.4 188.4,30.7 203.4,30.7 203.4,34.8 
			183.9,34.8 183.9,8.1 202.9,8.1 202.9,12.2 		"/>
		<path class="st4" d="M231,21.7v9.8c-2.7,2.1-6.7,3.5-10.3,3.5c-7.9,0-14-5.9-14-13.5c0-7.6,6.2-13.4,14.3-13.4
			c3.8,0,7.6,1.4,10.2,3.7l-2.5,3.3c-2.1-1.9-4.9-3-7.7-3c-5.4,0-9.7,4.1-9.7,9.4c0,5.3,4.3,9.5,9.7,9.5c2,0,4.2-0.7,6.1-1.8v-7.4
			L231,21.7L231,21.7z"/>
		<polygon class="st4" points="241.8,12.2 241.8,19.4 254.8,19.4 254.8,23.4 241.8,23.4 241.8,30.7 256.8,30.7 256.8,34.8 
			237.3,34.8 237.3,8.1 256.3,8.1 256.3,12.2 		"/>
		<polygon class="st4" points="280.9,34.8 266.7,15.7 266.7,34.8 262.2,34.8 262.2,8.1 266.7,8.1 280.9,27.3 280.9,8.1 285.3,8.1 
			285.3,34.8 		"/>
		<path class="st4" d="M128.6,55.4h4c2.7,0,4.2-1.3,4.2-3.9c0-2.5-1.5-3.8-4.2-3.8h-4L128.6,55.4L128.6,55.4z M133,42.9
			c6.1,0,9.7,3,9.7,8.4c0,5.6-3.5,8.9-9.7,8.9h-4.4V67h-6.1v-24H133L133,42.9z"/>
		<path class="st4" d="M154.8,49l-3.5,8.9h6.9L154.8,49L154.8,49z M149.5,62.5l-1.7,4.4h-6.3l10.4-24h6.3l10.1,24h-6.5l-1.7-4.4
			H149.5L149.5,62.5z"/>
		<path class="st4" d="M181.2,55.4c2.6,0,4.2-1.3,4.2-3.9c0-2.5-1.5-3.8-4.2-3.8h-4.6v7.7H181.2L181.2,55.4z M181.4,60.2h-0.2h-4.6
			V67h-6.1v-24h10.7c6.3,0,10,3,10,8.4c0,3.7-1.5,6.3-4.4,7.7l5,7.9H185L181.4,60.2L181.4,60.2z"/>
		<polygon class="st4" points="204.6,57.5 201.4,61.1 201.4,67 195.3,67 195.3,42.9 201.4,42.9 201.4,53.3 210.6,42.9 217.7,42.9 
			208.8,52.9 218.3,67 211,67 		"/>
		<polygon class="st4" points="227.1,47.7 227.1,52.5 238.5,52.5 238.5,57.3 227.1,57.3 227.1,62.1 240.1,62.1 240.1,67 220.9,67 
			220.9,42.9 239.7,42.9 239.7,47.7 		"/>
		<path class="st4" d="M254.8,55.4c2.6,0,4.2-1.3,4.2-3.9c0-2.5-1.5-3.8-4.2-3.8h-4.6v7.7H254.8L254.8,55.4z M255,60.2h-0.2h-4.6V67
			h-6.1v-24h10.7c6.3,0,10,3,10,8.4c0,3.7-1.5,6.3-4.4,7.7l5,7.9h-6.9L255,60.2L255,60.2z"/>
		<polygon class="st4" points="275,47.7 275,52.5 286.5,52.5 286.5,57.3 275,57.3 275,62.1 288.1,62.1 288.1,67 268.9,67 
			268.9,42.9 287.7,42.9 287.7,47.7 		"/>
		<polygon class="st4" points="308.8,67 297.8,52.2 297.8,67 292,67 292,42.9 297.4,42.9 308.5,57.8 308.5,42.9 314.2,42.9 
			314.2,67 		"/>
		<path class="st5" d="M140,76.6c1.2,0,2.2,0.5,2.8,1.5c0.6,1,1,2.2,1,3.7c0,1.5-0.4,2.8-1.1,4.1s-1.6,1.8-2.5,1.8
			c-0.7,0-1.2-0.4-1.5-1.1c-0.3-0.8-0.5-1.8-0.6-3.3c-0.4,0.6-1,1.3-1.5,2.1c-1.1,1.5-1.9,2.3-2.3,2.3c-0.2,0-0.4-0.1-0.6-0.4
			c-0.2-0.3-0.3-0.6-0.3-1c0-0.4,0.1-1.7,0.4-3.9c0.3-2.2,0.4-3.9,0.4-5.1c0-0.4,0.1-0.6,0.3-0.6c0.2,0,0.5,0.1,0.8,0.4
			c0.3,0.3,0.5,0.5,0.5,0.8c0,0.2-0.2,1.3-0.5,3.4c-0.4,2-0.6,3.6-0.7,4.7c0.6-1.1,1.4-2.1,2.2-3c0.8-0.9,1.4-1.4,1.7-1.4
			c0.4,0,0.6,0.8,0.7,2.4c0.1,0.6,0.2,1.1,0.3,1.6c0.2,0.5,0.4,0.7,0.6,0.7c0.6,0,1.1-0.5,1.5-1.4c0.4-1,0.7-2,0.7-3.2
			c0-1.3-0.3-2.3-0.9-3c-0.3-0.4-0.6-0.6-1-0.6c-0.4,0-0.7-0.1-0.9-0.4c-0.2-0.2-0.4-0.5-0.4-0.6C139.3,76.8,139.5,76.6,140,76.6
			L140,76.6z"/>
		<path class="st5" d="M147.1,77.7c0-0.2,0.1-0.4,0.3-0.6s0.3-0.3,0.5-0.3c0.2,0,0.4,0.2,0.6,0.6c0.2,0.4,0.4,0.8,0.4,1.1
			c0,0.1,0,0.2-0.1,0.3c-0.1,0.1-0.2,0.1-0.3,0.1c-0.3,0-0.5-0.2-0.8-0.5C147.2,78.2,147.1,77.9,147.1,77.7L147.1,77.7z M147,79.9
			c0.2,0,0.4,0.1,0.6,0.4c0.2,0.2,0.3,0.5,0.3,0.7c0,0.2-0.2,0.9-0.5,2.1c-0.3,1.2-0.7,2.5-1.2,3.9c-0.2,0.5-0.4,0.8-0.7,0.8
			c-0.1,0-0.3-0.1-0.4-0.2c-0.1-0.1-0.2-0.3-0.2-0.4c0-0.2,0-0.4,0.1-0.7c0.1-0.3,0.2-0.8,0.3-1.3c0.2-0.6,0.3-1,0.4-1.4
			c0.1-0.4,0.2-0.7,0.3-1.2c0.1-0.4,0.2-0.8,0.2-1.1c0.1-0.3,0.1-0.5,0.2-0.8C146.7,80.2,146.8,79.9,147,79.9L147,79.9z"/>
		<path class="st5" d="M151.1,77.7c0-0.2,0.1-0.4,0.3-0.6s0.3-0.3,0.5-0.3c0.2,0,0.4,0.2,0.6,0.6c0.2,0.4,0.4,0.8,0.4,1.1
			c0,0.1,0,0.2-0.1,0.3c-0.1,0.1-0.2,0.1-0.3,0.1c-0.3,0-0.5-0.2-0.9-0.5C151.2,78.2,151.1,77.9,151.1,77.7L151.1,77.7z M146,90
			c0.5,0.6,0.8,0.9,1.1,0.9c0.3,0,0.5-0.2,0.7-0.5c0.2-0.3,0.4-0.8,0.6-1.5s0.4-1.4,0.5-2.1c0.2-0.7,0.4-1.7,0.7-2.9
			c0.3-1.2,0.5-2.2,0.8-3.2c0.2-0.5,0.3-0.8,0.5-0.8c0.2,0,0.4,0.1,0.6,0.3c0.2,0.2,0.3,0.5,0.3,0.7c0,0.2-0.2,1-0.5,2.2
			c-0.3,1.2-0.6,2.3-0.9,3.3c-0.3,1-0.5,1.9-0.7,2.9c-0.5,1.7-1.3,2.5-2.5,2.5c-0.5,0-1-0.2-1.5-0.7c-0.5-0.4-0.8-0.8-0.8-1.1
			c0-0.1,0.1-0.3,0.2-0.5c0.1-0.2,0.2-0.3,0.3-0.3c0.1,0,0.2,0.1,0.4,0.2C145.8,89.7,145.9,89.9,146,90L146,90z"/>
		<path class="st5" d="M161.1,76.1c0-0.4,0.1-0.6,0.4-0.6c0.2,0,0.4,0.2,0.6,0.5c0.2,0.3,0.3,0.6,0.3,0.9c0,0.7-0.2,1.9-0.5,3.5
			c-0.3,1.7-0.8,3.3-1.3,5c1.1-1.9,1.9-3.3,2.7-4.2c0.7-0.8,1.3-1.3,1.8-1.3c0.3,0,0.6,0.2,1,0.7c0.4,0.5,0.5,1,0.5,1.4
			s-0.1,1.2-0.4,2.1c-0.7,2.4-1.3,3.6-1.9,3.6c-0.2,0-0.4-0.2-0.4-0.5c0-0.3,0.1-0.9,0.4-1.6c0.6-1.6,0.8-2.7,0.8-3.3
			c0-0.2,0-0.4-0.1-0.5c-0.1-0.1-0.2-0.2-0.4-0.2c-0.1,0-0.3,0.1-0.5,0.2s-0.4,0.4-0.7,0.8c-0.4,0.5-0.7,1-1.1,1.6
			c-0.4,0.6-0.6,0.9-0.7,1.1c-0.1,0.1-0.2,0.3-0.4,0.7c-0.2,0.3-0.3,0.6-0.4,0.7c-0.1,0.2-0.2,0.3-0.3,0.5c-0.2,0.4-0.4,0.5-0.6,0.5
			c-0.1,0-0.3-0.1-0.5-0.4c-0.2-0.2-0.3-0.4-0.3-0.6c0-0.2,0.1-0.5,0.2-0.9c0.5-2,0.9-3.4,1-4.2C160.8,79,161.1,77.1,161.1,76.1
			L161.1,76.1z"/>
		<path class="st5" d="M171.7,81.2c-0.4,0-0.8,0.2-1.2,0.6c-0.4,0.4-0.8,0.9-1.1,1.5c0.4,0.1,0.9,0.1,1.4,0.1s1-0.1,1.4-0.3
			c0.4-0.2,0.6-0.4,0.6-0.7s-0.1-0.6-0.4-0.9C172.2,81.3,171.9,81.2,171.7,81.2L171.7,81.2z M174.1,82.6c0,0.6-0.3,1-0.9,1.4
			c-0.6,0.4-1.3,0.5-2.1,0.5s-1.5-0.1-2.1-0.3c-0.1,0.5-0.2,0.9-0.2,1.2s0.1,0.6,0.3,0.8c0.2,0.2,0.6,0.3,1.1,0.3
			c0.5,0,1.1-0.1,1.6-0.3c0.6-0.2,0.9-0.3,0.9-0.3c0.3,0,0.4,0.1,0.4,0.3c0,0.3-0.3,0.6-1,0.9c-0.6,0.3-1.3,0.5-1.9,0.5
			c-0.8,0-1.5-0.2-2-0.7c-0.5-0.5-0.8-1.1-0.8-1.9c0-0.7,0.2-1.5,0.6-2.4c0.4-0.8,0.9-1.5,1.6-2.1c0.6-0.6,1.3-0.8,1.9-0.8
			c0.6,0,1.2,0.3,1.7,0.9C173.8,81.4,174.1,82,174.1,82.6L174.1,82.6z"/>
		<path class="st5" d="M178,76.8c0,2-0.4,4.6-1.2,7.7c-0.5,2.2-0.9,3.2-1.1,3.2c-0.1,0-0.3-0.1-0.5-0.4c-0.2-0.2-0.3-0.4-0.3-0.5
			c0-0.1,0.2-0.8,0.5-2c0.3-1.2,0.6-2.6,0.9-4.4c0.3-1.7,0.5-3.3,0.5-4.7c0-0.1,0-0.3,0.1-0.3c0-0.1,0.1-0.1,0.3-0.1
			c0.1,0,0.3,0.1,0.6,0.5C177.9,76.2,178,76.5,178,76.8L178,76.8z"/>
		<path class="st5" d="M180.1,86.5c0.6,0,1.2-0.2,1.8-0.6c0.7-0.4,1.2-0.9,1.7-1.5c0.5-0.6,0.7-1.3,0.7-1.9c0-0.9-0.2-1.3-0.6-1.3
			s-1,0.4-1.7,1.1c-0.7,0.7-1.3,1.6-1.7,2.8l-0.4,1.5L180.1,86.5L180.1,86.5L180.1,86.5z M183.9,79.9c0.5,0,0.8,0.3,1.2,0.9
			c0.3,0.6,0.5,1.2,0.5,1.8c0,0.6-0.2,1.2-0.5,1.9c-0.4,0.6-0.8,1.2-1.3,1.7c-0.5,0.5-1.1,0.9-1.8,1.2c-0.6,0.3-1.2,0.5-1.8,0.5
			c-0.2,0-0.4,0-0.6-0.1c0,0.2-0.1,0.5-0.2,1c-0.1,0.5-0.2,0.9-0.3,1.2c-0.1,0.3-0.2,0.6-0.3,1c-0.2,0.7-0.4,1.1-0.5,1.1
			s-0.3-0.1-0.5-0.3c-0.2-0.2-0.2-0.4-0.2-0.6c0-0.2,0.2-1,0.5-2.3c1-4.1,1.5-6.9,1.5-8.3c0-0.3,0.1-0.5,0.3-0.5
			c0.2,0,0.4,0.1,0.7,0.4c0.3,0.3,0.4,0.6,0.4,0.9c0,0.2,0,0.4-0.1,0.6C182,80.5,183,79.9,183.9,79.9L183.9,79.9z"/>
		<path class="st5" d="M190.3,81.2c-0.4,0-0.8,0.2-1.2,0.6c-0.4,0.4-0.8,0.9-1.1,1.5c0.4,0.1,0.9,0.1,1.4,0.1c0.5,0,1-0.1,1.4-0.3
			c0.4-0.2,0.6-0.4,0.6-0.7s-0.1-0.6-0.4-0.9C190.8,81.3,190.5,81.2,190.3,81.2L190.3,81.2z M192.7,82.6c0,0.6-0.3,1-0.9,1.4
			c-0.6,0.4-1.3,0.5-2.1,0.5c-0.8,0-1.5-0.1-2.1-0.3c-0.1,0.5-0.2,0.9-0.2,1.2s0.1,0.6,0.3,0.8c0.2,0.2,0.6,0.3,1.1,0.3
			c0.5,0,1.1-0.1,1.6-0.3c0.6-0.2,0.9-0.3,0.9-0.3c0.3,0,0.4,0.1,0.4,0.3c0,0.3-0.3,0.6-1,0.9c-0.6,0.3-1.3,0.5-1.9,0.5
			c-0.8,0-1.5-0.2-2-0.7c-0.5-0.5-0.8-1.1-0.8-1.9c0-0.7,0.2-1.5,0.6-2.4c0.4-0.8,0.9-1.5,1.6-2.1c0.6-0.6,1.3-0.8,1.9-0.8
			c0.6,0,1.2,0.3,1.7,0.9C192.4,81.4,192.7,82,192.7,82.6L192.7,82.6z"/>
		<path class="st5" d="M197.5,81.2c0.6-0.8,1.2-1.3,1.6-1.3c0.4,0,0.8,0.2,1.2,0.6c0.4,0.4,0.5,0.9,0.5,1.4c0,0.8-0.2,1.7-0.5,2.8
			c-0.6,2-1.2,3-1.7,3c-0.2,0-0.4-0.2-0.4-0.5c0-0.2,0.1-0.7,0.3-1.4c0.2-0.7,0.4-1.4,0.6-2c0.2-0.7,0.3-1.2,0.3-1.5
			c0-0.3,0-0.6-0.2-0.7c-0.1-0.2-0.2-0.2-0.3-0.2c-0.1,0-0.2,0-0.3,0.1c-0.1,0.1-0.2,0.2-0.4,0.3c-0.1,0.1-0.3,0.3-0.4,0.4
			c-0.1,0.1-0.3,0.3-0.4,0.6c-0.2,0.3-0.3,0.5-0.4,0.7c-0.1,0.2-0.3,0.5-0.5,0.8c-0.2,0.3-0.4,0.6-0.5,0.8c-0.1,0.2-0.3,0.4-0.5,0.7
			c-0.2,0.3-0.3,0.5-0.5,0.7c-0.1,0.2-0.2,0.4-0.4,0.6c-0.3,0.4-0.5,0.6-0.6,0.6c-0.2,0-0.3-0.1-0.5-0.4c-0.2-0.2-0.3-0.4-0.3-0.6
			c0-0.1,0-0.2,0.1-0.4c0.2-0.6,0.4-1.4,0.7-2.3c0.2-0.9,0.4-1.9,0.4-3.1c0-0.8,0.1-1.2,0.3-1.2c0.2,0,0.5,0.1,0.7,0.4
			c0.2,0.2,0.4,0.5,0.4,0.8c0,0.3-0.1,0.9-0.3,1.7c-0.2,0.8-0.4,1.6-0.6,2.3C196.1,83.3,196.9,82,197.5,81.2L197.5,81.2z"/>
		<path class="st5" d="M214.1,80c0-0.1,0.1-0.1,0.3-0.1c0.1,0,0.3,0.1,0.5,0.4c0.2,0.3,0.3,0.5,0.3,0.8c0,0.1-0.2,1-0.7,2.4
			c-0.5,1.5-0.8,2.7-1.1,3.6c-0.1,0.4-0.3,0.7-0.5,0.7c-0.1,0-0.3-0.1-0.3-0.2c-0.1-0.1-0.1-0.3-0.1-0.6c0-0.3,0.1-0.9,0.4-1.7
			c-0.4,0.7-0.9,1.3-1.4,1.8c-0.5,0.5-1,0.7-1.4,0.7c-0.4,0-0.8-0.2-1.2-0.6c-0.4-0.4-0.6-0.8-0.6-1.2c0-1,0.3-2.3,0.9-3.8
			c0.6-1.5,1.1-2.3,1.5-2.3c0.2,0,0.4,0.1,0.5,0.3c0.1,0.2,0.2,0.4,0.2,0.6c0,0.1-0.1,0.4-0.4,1c-0.3,0.6-0.6,1.3-0.9,2.1
			c-0.3,0.8-0.4,1.5-0.4,2.1c0,0.2,0.1,0.3,0.2,0.4c0.1,0.1,0.2,0.2,0.4,0.2c0.4,0,0.9-0.4,1.4-1.1c0.6-0.7,1.1-1.5,1.5-2.5
			c0.5-0.9,0.8-1.8,1-2.6C214,80.2,214,80.1,214.1,80L214.1,80z"/>
		<path class="st5" d="M223.5,85.9c0,0.2,0.1,0.3,0.2,0.4c0.1,0.1,0.3,0.2,0.4,0.2c0.5,0,1.2-0.3,1.9-0.9c0.7-0.6,1.2-1.4,1.5-2.2
			c0-0.1-0.1-0.4-0.1-0.6c0-0.3-0.1-0.5-0.1-0.7c0-0.2-0.1-0.3-0.2-0.5s-0.2-0.3-0.4-0.3c-0.4,0-0.9,0.3-1.4,0.9
			c-0.5,0.6-0.9,1.3-1.3,2C223.6,84.9,223.5,85.4,223.5,85.9L223.5,85.9z M228.6,83.5c0,0.4-0.2,0.9-0.6,1.4
			c-0.3,0.6-0.6,1.6-0.9,2.8c-0.3,1.2-0.6,2.1-0.8,2.6c-0.4,1.1-1.1,1.6-2,1.6c-0.8,0-1.4-0.2-1.9-0.6c-0.5-0.4-0.8-0.8-0.8-1.2
			c0-0.2,0.1-0.3,0.2-0.5s0.2-0.3,0.3-0.3c0.1,0,0.2,0.1,0.4,0.2c0.1,0.2,0.3,0.3,0.4,0.5c0.1,0.2,0.3,0.4,0.6,0.5
			c0.2,0.2,0.5,0.2,0.7,0.2c0.2,0,0.4,0,0.5-0.1c0.1-0.1,0.2-0.2,0.3-0.3c0.1-0.2,0.2-0.3,0.3-0.5c0.1-0.2,0.2-0.4,0.2-0.7
			c0.1-0.3,0.2-0.5,0.2-0.7c0.1-0.2,0.1-0.5,0.2-0.8c0.1-0.4,0.2-0.7,0.2-0.9c-0.8,0.6-1.5,0.9-2,0.9c-0.5,0-1-0.2-1.3-0.6
			c-0.4-0.4-0.6-0.9-0.6-1.5c0-0.6,0.2-1.3,0.6-2.2c0.4-0.9,1-1.7,1.7-2.5c0.7-0.7,1.4-1.1,2.1-1.1c0.4,0,0.8,0.2,1.1,0.5
			c0.5,0.5,0.7,1.3,0.7,2.3c0,0.1,0,0.2,0,0.3C228.5,83.2,228.6,83.4,228.6,83.5L228.6,83.5z"/>
		<path class="st5" d="M230.8,81.9l0-1.2c0-0.5,0.1-0.7,0.4-0.7c0.2,0,0.4,0.1,0.6,0.4c0.2,0.3,0.3,0.6,0.3,0.9c0,0.4,0,0.6,0,0.8
			c0.9-1.4,1.8-2.1,2.6-2.1c0.5,0,0.8,0.1,0.8,0.4c0,0.1-0.1,0.2-0.2,0.3c-0.1,0.1-0.3,0.2-0.6,0.4c-0.6,0.2-1,0.6-1.4,1.1
			c-0.4,0.5-0.7,1.1-0.9,1.7c-0.2,0.6-0.4,1.2-0.6,1.6c-0.1,0.4-0.3,0.8-0.3,1c-0.1,0.2-0.2,0.5-0.3,0.7c-0.2,0.4-0.4,0.6-0.6,0.6
			c-0.2,0-0.3-0.1-0.4-0.3s-0.2-0.4-0.2-0.6c0-0.2,0.1-0.6,0.3-1.2C230.6,84.4,230.8,83.1,230.8,81.9L230.8,81.9z"/>
		<path class="st5" d="M240,82.7c0-1-0.2-1.5-0.6-1.5c-0.4,0-0.9,0.3-1.4,0.9c-0.6,0.6-1,1.3-1.4,2c-0.4,0.7-0.6,1.3-0.6,1.8
			c0,0.2,0.1,0.3,0.2,0.4c0.1,0.1,0.3,0.2,0.5,0.2c0.5,0,1.1-0.3,1.7-1c0.6-0.7,1.1-1.5,1.3-2.5C239.8,82.9,239.9,82.8,240,82.7
			L240,82.7L240,82.7z M240.6,80.7c0.4,0.5,0.6,0.9,0.6,1.3s-0.1,0.8-0.4,1.2c0.1,0.2,0.2,0.3,0.2,0.4c0,0.3-0.1,0.8-0.2,1.5
			c-0.1,0.7-0.2,1.2-0.2,1.4c0,0.2,0,0.4-0.1,0.5c0,0.1,0,0.3-0.1,0.4c0,0.3-0.1,0.4-0.3,0.4c-0.2,0-0.3-0.2-0.5-0.5
			c-0.1-0.3-0.2-0.8-0.2-1.3c-0.9,1.2-1.8,1.8-2.6,1.8c-0.5,0-1-0.2-1.4-0.6c-0.5-0.4-0.7-0.8-0.7-1.3c0-0.6,0.2-1.4,0.7-2.4
			c0.5-0.9,1.1-1.8,1.8-2.5c0.7-0.7,1.4-1.1,2.1-1.1C239.8,79.9,240.2,80.2,240.6,80.7L240.6,80.7z"/>
		<path class="st5" d="M247.5,82.7c0-1-0.2-1.5-0.6-1.5c-0.4,0-0.9,0.3-1.4,0.9c-0.6,0.6-1,1.3-1.4,2c-0.4,0.7-0.6,1.3-0.6,1.8
			c0,0.2,0.1,0.3,0.2,0.4c0.1,0.1,0.3,0.2,0.5,0.2c0.5,0,1.1-0.3,1.7-1c0.6-0.7,1.1-1.5,1.3-2.5C247.3,82.9,247.3,82.8,247.5,82.7
			L247.5,82.7L247.5,82.7z M248.1,80.7c0.4,0.5,0.6,0.9,0.6,1.3s-0.1,0.8-0.4,1.2c0.1,0.2,0.2,0.3,0.2,0.4c0,0.3-0.1,0.8-0.2,1.5
			c-0.1,0.7-0.2,1.2-0.2,1.4c0,0.2,0,0.4-0.1,0.5c0,0.1,0,0.3-0.1,0.4c0,0.3-0.1,0.4-0.3,0.4c-0.2,0-0.3-0.2-0.5-0.5
			c-0.1-0.3-0.2-0.8-0.2-1.3c-0.9,1.2-1.8,1.8-2.6,1.8c-0.5,0-1-0.2-1.4-0.6c-0.5-0.4-0.7-0.8-0.7-1.3c0-0.6,0.2-1.4,0.7-2.4
			c0.5-0.9,1.1-1.8,1.8-2.5c0.7-0.7,1.4-1.1,2.1-1.1C247.2,79.9,247.7,80.2,248.1,80.7L248.1,80.7z"/>
		<path class="st5" d="M251.2,85.9c0,0.2,0.1,0.3,0.2,0.4c0.1,0.1,0.3,0.2,0.4,0.2c0.5,0,1.2-0.3,1.9-0.9c0.7-0.6,1.2-1.4,1.5-2.2
			c0-0.1-0.1-0.4-0.1-0.6c0-0.3-0.1-0.5-0.1-0.7c0-0.2-0.1-0.3-0.2-0.5c-0.1-0.2-0.2-0.3-0.4-0.3c-0.4,0-0.9,0.3-1.4,0.9
			c-0.5,0.6-0.9,1.3-1.3,2C251.3,84.9,251.2,85.4,251.2,85.9L251.2,85.9z M256.3,83.5c0,0.4-0.2,0.9-0.6,1.4
			c-0.3,0.6-0.6,1.6-0.9,2.8c-0.3,1.2-0.6,2.1-0.8,2.6c-0.4,1.1-1.1,1.6-2,1.6c-0.8,0-1.4-0.2-1.9-0.6c-0.5-0.4-0.8-0.8-0.8-1.2
			c0-0.2,0.1-0.3,0.2-0.5s0.2-0.3,0.3-0.3c0.1,0,0.2,0.1,0.4,0.2c0.1,0.2,0.3,0.3,0.4,0.5c0.1,0.2,0.3,0.4,0.6,0.5
			c0.2,0.2,0.5,0.2,0.7,0.2c0.2,0,0.4,0,0.5-0.1c0.1-0.1,0.2-0.2,0.3-0.3c0.1-0.2,0.2-0.3,0.3-0.5c0.1-0.2,0.2-0.4,0.2-0.7
			c0.1-0.3,0.2-0.5,0.2-0.7c0.1-0.2,0.1-0.5,0.2-0.8c0.1-0.4,0.2-0.7,0.2-0.9c-0.8,0.6-1.5,0.9-2,0.9c-0.5,0-1-0.2-1.4-0.6
			c-0.4-0.4-0.6-0.9-0.6-1.5c0-0.6,0.2-1.3,0.6-2.2c0.4-0.9,1-1.7,1.7-2.5c0.7-0.7,1.4-1.1,2.1-1.1c0.4,0,0.8,0.2,1.1,0.5
			c0.5,0.5,0.7,1.3,0.7,2.3c0,0.1,0,0.2,0,0.3C256.2,83.2,256.3,83.4,256.3,83.5L256.3,83.5z"/>
		<path class="st5" d="M268.7,82.6c0-0.4-0.1-0.7-0.2-1c-0.1-0.3-0.3-0.6-0.5-0.7c-0.7,0.2-1.4,0.8-1.9,1.7
			c-0.5,0.9-0.8,1.8-0.8,2.6c0,0.8,0.2,1.3,0.6,1.5c0.8-0.1,1.4-0.7,1.9-1.6C268.4,84.3,268.7,83.4,268.7,82.6L268.7,82.6z
			 M264.5,82.8c0.4-0.8,0.8-1.5,1.4-2c0.6-0.5,1.2-0.8,1.8-0.8c0.6,0,1.2,0.3,1.6,0.8c0.4,0.5,0.6,1.2,0.6,2c0,0.8-0.2,1.6-0.6,2.3
			c-0.4,0.8-0.9,1.5-1.5,2c-0.7,0.5-1.3,0.8-2.1,0.8c-0.5,0-1-0.2-1.3-0.7c-0.4-0.5-0.5-1.1-0.5-1.9C264,84.4,264.1,83.6,264.5,82.8
			L264.5,82.8z"/>
		<path class="st5" d="M272.4,86.5c0.6,0,1.2-0.2,1.8-0.6c0.6-0.4,1.2-0.9,1.7-1.5c0.5-0.6,0.7-1.3,0.7-1.9c0-0.9-0.2-1.3-0.6-1.3
			s-1,0.4-1.7,1.1c-0.7,0.7-1.3,1.6-1.7,2.8l-0.4,1.5L272.4,86.5L272.4,86.5L272.4,86.5z M276.3,79.9c0.5,0,0.8,0.3,1.2,0.9
			c0.3,0.6,0.5,1.2,0.5,1.8c0,0.6-0.2,1.2-0.5,1.9c-0.4,0.6-0.8,1.2-1.3,1.7c-0.5,0.5-1.1,0.9-1.8,1.2c-0.6,0.3-1.2,0.5-1.8,0.5
			c-0.2,0-0.4,0-0.6-0.1c0,0.2-0.1,0.5-0.2,1c-0.1,0.5-0.2,0.9-0.3,1.2c-0.1,0.3-0.2,0.6-0.3,1c-0.2,0.7-0.4,1.1-0.5,1.1
			c-0.2,0-0.3-0.1-0.5-0.3c-0.2-0.2-0.2-0.4-0.2-0.6c0-0.2,0.2-1,0.5-2.3c1-4.1,1.5-6.9,1.5-8.3c0-0.3,0.1-0.5,0.3-0.5
			c0.2,0,0.4,0.1,0.7,0.4c0.3,0.3,0.4,0.6,0.4,0.9c0,0.2,0,0.4-0.1,0.6C274.3,80.5,275.3,79.9,276.3,79.9L276.3,79.9z"/>
		<path class="st5" d="M291.4,81.6l-0.1,3c0,0.8,0,1.4,0.1,1.8c0.5-0.5,0.8-1,1.2-1.7c0.3-0.6,0.6-1.2,0.7-1.8
			c0.2-0.5,0.3-1.1,0.4-1.5c0.1-0.5,0.2-0.9,0.3-1.2c0.1-0.3,0.2-0.4,0.4-0.4c0.2,0,0.4,0.1,0.5,0.2c0.2,0.2,0.2,0.4,0.2,0.6
			c0,0.5-0.2,1.4-0.7,2.7c-0.4,1.1-1,2.2-1.6,3.1c-0.7,0.9-1.2,1.4-1.6,1.4c-0.4,0-0.6-0.2-0.8-0.6c-0.2-0.4-0.3-1.2-0.3-2.4
			c0-1.2,0-2.2,0-3c-0.7,2-1.4,3.5-1.9,4.5c-0.6,1-1,1.5-1.3,1.5c-0.1,0-0.3-0.1-0.5-0.2c-0.2-0.1-0.3-0.3-0.4-0.5
			c-0.2-0.6-0.4-1.6-0.6-3.2c-0.2-1.6-0.2-2.7-0.2-3.4c0-0.4,0.1-0.7,0.4-0.7c0.2,0,0.4,0.1,0.6,0.4c0.2,0.3,0.3,0.5,0.3,0.8
			c0,0.3,0.1,1,0.1,2.2c0,1.2,0.1,2.2,0.3,3.1c0.4-0.8,0.9-1.7,1.3-2.8c0.4-1.1,0.8-2,1.1-2.7c0.3-0.6,0.5-1,0.8-1
			c0.4,0,0.6,0.2,0.9,0.5C291.3,80.7,291.4,81.1,291.4,81.6L291.4,81.6z"/>
		<path class="st5" d="M299.6,81.2c-0.4,0-0.8,0.2-1.2,0.6c-0.4,0.4-0.8,0.9-1.1,1.5c0.4,0.1,0.9,0.1,1.4,0.1c0.5,0,1-0.1,1.4-0.3
			c0.4-0.2,0.6-0.4,0.6-0.7s-0.1-0.6-0.4-0.9C300.2,81.3,299.9,81.2,299.6,81.2L299.6,81.2z M302,82.6c0,0.6-0.3,1-0.9,1.4
			c-0.6,0.4-1.3,0.5-2.1,0.5s-1.5-0.1-2.1-0.3c-0.1,0.5-0.2,0.9-0.2,1.2s0.1,0.6,0.3,0.8c0.2,0.2,0.6,0.3,1.1,0.3
			c0.5,0,1.1-0.1,1.6-0.3c0.6-0.2,0.9-0.3,0.9-0.3c0.3,0,0.4,0.1,0.4,0.3c0,0.3-0.3,0.6-1,0.9c-0.6,0.3-1.3,0.5-1.9,0.5
			c-0.8,0-1.5-0.2-2-0.7c-0.5-0.5-0.8-1.1-0.8-1.9c0-0.7,0.2-1.5,0.6-2.4c0.4-0.8,0.9-1.5,1.6-2.1c0.6-0.6,1.3-0.8,1.9-0.8
			c0.6,0,1.2,0.3,1.7,0.9C301.8,81.4,302,82,302,82.6L302,82.6z"/>
		<path class="st5" d="M304,85.9c0,0.2,0.1,0.3,0.2,0.4c0.1,0.1,0.3,0.2,0.4,0.2c0.5,0,1.2-0.3,1.9-0.9c0.7-0.6,1.2-1.4,1.5-2.2
			c0-0.1-0.1-0.4-0.1-0.6c0-0.3-0.1-0.5-0.1-0.7c0-0.2-0.1-0.3-0.2-0.5c-0.1-0.2-0.2-0.3-0.4-0.3c-0.4,0-0.9,0.3-1.4,0.9
			c-0.5,0.6-0.9,1.3-1.3,2C304.2,84.9,304,85.4,304,85.9L304,85.9z M309.1,83.5c0,0.4-0.2,0.9-0.6,1.4c-0.3,0.6-0.6,1.6-0.9,2.8
			c-0.3,1.2-0.6,2.1-0.8,2.6c-0.4,1.1-1.1,1.6-2,1.6c-0.7,0-1.4-0.2-1.9-0.6c-0.5-0.4-0.8-0.8-0.8-1.2c0-0.2,0.1-0.3,0.2-0.5
			c0.1-0.2,0.2-0.3,0.3-0.3c0.1,0,0.2,0.1,0.4,0.2c0.1,0.2,0.3,0.3,0.4,0.5c0.1,0.2,0.3,0.4,0.6,0.5c0.2,0.2,0.5,0.2,0.7,0.2
			c0.2,0,0.4,0,0.5-0.1c0.1-0.1,0.2-0.2,0.3-0.3c0.1-0.2,0.2-0.3,0.3-0.5c0.1-0.2,0.2-0.4,0.2-0.7c0.1-0.3,0.2-0.5,0.2-0.7
			c0.1-0.2,0.1-0.5,0.2-0.8c0.1-0.4,0.2-0.7,0.2-0.9c-0.8,0.6-1.5,0.9-2,0.9c-0.5,0-1-0.2-1.3-0.6c-0.4-0.4-0.6-0.9-0.6-1.5
			c0-0.6,0.2-1.3,0.6-2.2c0.4-0.9,1-1.7,1.7-2.5c0.7-0.7,1.4-1.1,2.1-1.1c0.4,0,0.8,0.2,1.1,0.5c0.5,0.5,0.7,1.3,0.7,2.3
			c0,0.1,0,0.2,0,0.3C309.1,83.2,309.1,83.4,309.1,83.5L309.1,83.5z"/>
		<path class="st5" d="M313.3,75.2c0.2,0,0.5,0.1,0.8,0.4c0.4,0.3,0.5,0.5,0.5,0.6c0,0.9-0.2,2.5-0.7,4.7c-0.5,2.3-0.8,3.4-1.1,3.4
			c-0.2,0-0.3-0.1-0.5-0.3c-0.1-0.2-0.2-0.4-0.2-0.5c0-0.1,0.1-0.4,0.2-1.1c0.1-0.7,0.3-1.7,0.5-2.9c0.2-1.3,0.2-2.5,0.2-3.8
			C313,75.3,313.1,75.2,313.3,75.2L313.3,75.2z M311.2,86.1c0.2-0.2,0.4-0.3,0.5-0.3c0.2,0,0.4,0.3,0.7,0.8c0.3,0.5,0.4,0.9,0.4,1.2
			c0,0.1-0.1,0.2-0.2,0.3c-0.1,0.1-0.2,0.1-0.3,0.1c-0.3,0-0.6-0.2-0.9-0.5c-0.3-0.3-0.5-0.6-0.5-0.8
			C311,86.5,311.1,86.3,311.2,86.1L311.2,86.1z"/>
		<path class="st3" d="M300.3,18.1c1.9-1,3.4-2.2,3.4-3.9c0-1.3-0.9-2.2-2.3-2.2c-1.5,0-2.4,1.1-2.4,2.5
			C299,15.6,299.4,16.7,300.3,18.1L300.3,18.1z M303.7,28.9c-2.1-2.1-3.8-3.9-5.2-5.4c-1.4,0.9-2.3,1.9-2.3,3.3
			c0,2.1,1.6,3.4,3.8,3.4C301.3,30.2,302.6,29.7,303.7,28.9L303.7,28.9z M310.8,35.8c-1.3-1.3-2.5-2.4-3.7-3.6
			c-2.2,1.7-4.7,2.7-7.4,2.7c-5.2,0-9-3.2-9-7.6c0-3.5,2.4-5.5,5.2-7c-1.6-2.2-2.2-3.9-2.2-5.8c0-3.9,2.9-6.4,7.5-6.4
			c4.5,0,7.6,2.4,7.6,5.9c0,3.7-3,5.6-6.1,7.2c1,1.2,2.4,2.5,4,4.1c0.7-1.2,1.3-2.6,1.7-4.2l4.2,3.1c-0.6,1.7-1.4,3.2-2.4,4.6
			c1.2,1.1,2.5,2.4,3.9,3.7L310.8,35.8L310.8,35.8z"/>
		<g>
			<g>
				<g>
					<defs>
						<rect id="SVGID_5_" x="6.1" width="308.6" height="131.2"/>
					</defs>
					<clipPath id="SVGID_6_">
						<use xlink:href="#SVGID_5_"  style="overflow:visible;"/>
					</clipPath>
					<path class="st6" d="M85.4,34.8c0-6.6-4.4-9.8-12.2-9.8H61.9v20h11.3C81,45,85.4,41.7,85.4,34.8L85.4,34.8z M93.5,34.6
						c0,11.4-7.3,18-20,18H61.9v13.2l-8.5-4.8V17.4h20.1C86.2,17.4,93.5,23.7,93.5,34.6L93.5,34.6z"/>
				</g>
			</g>
			<g>
				<g>
					<defs>
						<rect id="SVGID_7_" x="6.1" width="308.6" height="131.2"/>
					</defs>
					<clipPath id="SVGID_8_">
						<use xlink:href="#SVGID_7_"  style="overflow:visible;"/>
					</clipPath>
					<path class="st7" d="M110.1,69.3c-18.3-0.7-40.2,18.8-79.5,16.3l-19.1-12l-5.4,1.3c0,0,12.7,22.9,15.3,24
						c2,0.8,4.5,2.6,8.1,3.2c9.5,1.8,21.2,1.2,33.1-0.6c-2.4,10.2-7.1,28.2-7.1,28.2s-0.3,1.3,0.6,1.5c1,0.2,9.7-2.9,9.7-2.9
						s1.2-0.7,3.2-4.1c1.8-3,11.2-19.3,16-27.5c21.3-5.7,38.9-13.8,40.1-17.9C126.7,73.2,113.8,69.4,110.1,69.3L110.1,69.3z"/>
				</g>
			</g>
		</g>
		<path class="st0" d="M108.8,71.8c0,0,2.5-0.5,5.4,0.5c2.5,0.9,3.3,1.5,3.3,1.5l-7.9,1.7L108.8,71.8L108.8,71.8z"/>
		<path class="st0" d="M36.3,90.6l-0.7,0.1c-0.4,0.1-0.8-0.2-0.9-0.6l-0.2-1.1c-0.1-0.4,0.2-0.8,0.6-0.9l0.7-0.1
			c0.4-0.1,0.8,0.2,0.9,0.6l0.2,1.1C36.9,90.1,36.7,90.5,36.3,90.6L36.3,90.6z"/>
		<path class="st0" d="M43.5,90.7l-0.7,0.1c-0.4,0.1-0.8-0.2-0.9-0.6l-0.2-1.1c-0.1-0.4,0.2-0.8,0.6-0.9l0.7-0.1
			c0.4-0.1,0.8,0.2,0.9,0.6l0.2,1.1C44.1,90.2,43.9,90.6,43.5,90.7L43.5,90.7z"/>
		<path class="st0" d="M50.9,90.1l-0.7,0.1c-0.4,0.1-0.8-0.2-0.9-0.6L49,88.5c-0.1-0.4,0.2-0.8,0.6-0.9l0.7-0.1
			c0.4-0.1,0.8,0.2,0.9,0.6l0.2,1.2C51.6,89.6,51.3,90,50.9,90.1L50.9,90.1z"/>
		<path class="st0" d="M59.2,89.4l-0.8,0.2c-0.5,0.1-0.9-0.2-1-0.7l-0.2-1.3c-0.1-0.5,0.2-0.9,0.7-1l0.8-0.2c0.5-0.1,0.9,0.2,1,0.7
			l0.2,1.3C60,88.9,59.7,89.3,59.2,89.4L59.2,89.4z"/>
		<path class="st0" d="M67.3,87.9l-0.8,0.2c-0.5,0.1-1-0.2-1.1-0.7L65.1,86c-0.1-0.5,0.2-1,0.7-1.1l0.8-0.2c0.5-0.1,1,0.2,1.1,0.7
			l0.3,1.3C68.1,87.3,67.8,87.8,67.3,87.9L67.3,87.9z"/>
		<path class="st0" d="M74.2,86.6l-0.9,0.2c-0.5,0.1-1-0.2-1.1-0.7L72,84.6c-0.1-0.5,0.2-1,0.7-1.1l0.9-0.2c0.5-0.1,1,0.2,1.1,0.7
			l0.3,1.4C75,86,74.7,86.5,74.2,86.6L74.2,86.6z"/>
		<path class="st0" d="M81.8,84.8l-1,0.2c-0.5,0.1-1-0.2-1.1-0.7l-0.3-1.5c-0.1-0.5,0.2-1,0.7-1.1l1-0.2c0.5-0.1,1,0.2,1.1,0.7
			l0.3,1.5C82.6,84.2,82.3,84.7,81.8,84.8L81.8,84.8z"/>
		<path class="st0" d="M89,82.6l-1,0.2c-0.5,0.1-1-0.2-1.1-0.7l-0.3-1.5c-0.1-0.5,0.2-1,0.7-1.1l1-0.2c0.5-0.1,1,0.2,1.1,0.7
			l0.3,1.5C89.9,82,89.5,82.5,89,82.6L89,82.6z"/>
		<path class="st0" d="M96.1,79.5l-1,0.2c-0.5,0.1-1-0.2-1.1-0.7l-0.3-1.5c-0.1-0.5,0.2-1,0.7-1.1l1-0.2c0.5-0.1,1,0.2,1.1,0.7
			l0.3,1.5C97,78.9,96.6,79.4,96.1,79.5L96.1,79.5z"/>
		<path class="st0" d="M103.4,76.8l-1,0.2c-0.5,0.1-1-0.2-1.1-0.7l-0.3-1.5c-0.1-0.5,0.2-1,0.7-1.1l1-0.2c0.5-0.1,1,0.2,1.1,0.7
			l0.3,1.5C104.2,76.2,103.9,76.7,103.4,76.8L103.4,76.8z"/>
		<path class="st8" d="M77.6,76.6c0,0-26.6-14.8-27.1-15.1C50,61.2,49.9,61,49,60.9c-0.9-0.2-10.5,1.4-10.8,3.4
			c-0.2,1.1,19.6,17.8,19.6,17.8S71.3,78.9,77.6,76.6L77.6,76.6z"/>
	</g>
</g>
</svg>
