<?xml version="1.0" encoding="utf-8"?>
<!-- Generator: Adobe Illustrator 23.0.2, SVG Export Plug-In . SVG Version: 6.00 Build 0)  -->
<svg version="1.1" id="Layer_1" xmlns="http://www.w3.org/2000/svg" xmlns:xlink="http://www.w3.org/1999/xlink" x="0px" y="0px"
	 viewBox="0 0 590.1 472.4" style="enable-background:new 0 0 590.1 472.4;" xml:space="preserve">
<style type="text/css">
	.st0{fill:#F2D0A2;}
	.st1{fill:#D5BB96;}
	.st2{fill:none;stroke:#D5BB96;stroke-width:1.2178;stroke-linecap:round;stroke-miterlimit:10;}
	.st3{fill:#F7F7F7;}
	.st4{fill:#F2F2F2;}
	.st5{fill:#104F6D;}
	.st6{fill:#FBFBFB;}
	.st7{fill:#E3E3E2;}
	.st8{fill:#1E90CA;}
	.st9{fill:#817356;}
	.st10{fill:#1D1D1B;}
	.st11{fill:#FFFFFF;}
	.st12{fill:#26AADC;}
	.st13{fill:#80BCE2;}
	.st14{fill:#0090CA;}
	.st15{fill:#2EABE1;}
	.st16{fill:#F4D9BF;}
	.st17{fill:#F378A2;}
	.st18{fill:#9DCAD1;}
	.st19{fill:#383E46;}
	.st20{fill:#3E4753;}
	.st21{fill:#D7EEF2;}
	.st22{fill:#DB854B;}
	.st23{fill:#EB8F4F;}
	.st24{fill:#EDCABE;}
	.st25{fill:#FFDDCF;}
	.st26{fill:none;stroke:#D69F8A;stroke-width:0.8756;stroke-miterlimit:10;}
	.st27{fill:#222228;}
	.st28{fill:#B77441;}
	.st29{fill:#C96565;}
	.st30{fill:#22272E;}
</style>
<g>
	<g>
		<path class="st0" d="M316.9,305.8c-3.6,3.4-7.3,6.8-10.9,10.3c-4.3,4-8.6,8.1-13.4,11.4c-2.6,1.8-7.4,2.9-10.5,3.4
			s-6.1-1.1-8.1-3.6c-0.1-0.2-0.3-0.4-0.5-0.5c-0.3-0.1-0.6-0.1-0.9-0.1c-1.8,0.1-3.6-1.4-3.8-3.2c0-0.3-0.4-1.3-0.4-1.6
			c-2.8,0.2-5.5-2.3-5.6-5.1c-2.4,0.4-5.5-1.5-5.5-3.9c0-2.3,2.6-3.9,4.5-5.2c4.3-2.8,9.1-6.7,13.8-9.4c5.9-3.4,9.6-5.9,18.4-8.7
			c4.5-1.5,9.5-2,13-5.2c3.5,5.7,8.3,14.6,11.3,20.7C318,305.3,317.2,305.9,316.9,305.8z"/>
		<g>
			<g>
				<path class="st1" d="M275.7,308.7c0,0-0.3,0.1-0.7,0.3c-0.4,0.2-1,0.4-1.7,0.8c-1.4,0.7-3.1,1.7-4.8,2.9
					c-0.8,0.6-1.7,1.2-2.4,1.7c-0.4,0.3-0.7,0.6-1.1,0.8c-0.3,0.3-0.6,0.5-1,0.7c-0.6,0.4-1.2,0.7-1.6,0.8c-0.4,0.2-0.7,0.1-0.7,0.1
					s0.2,0.1,0.7,0.1c0.5,0,1.1-0.1,1.9-0.4c0.4-0.1,0.8-0.3,1.2-0.4c0.4-0.2,0.8-0.4,1.3-0.6c0.8-0.4,1.7-1,2.6-1.5
					c1.7-1.1,3.3-2.4,4.4-3.5c0.6-0.5,1-1,1.3-1.3C275.5,308.9,275.7,308.7,275.7,308.7z"/>
				<path class="st1" d="M280.1,315.4c0,0-0.2,0.1-0.5,0.3c-0.3,0.2-0.8,0.4-1.4,0.7c-0.6,0.2-1.3,0.5-2.1,0.9
					c-0.8,0.3-1.6,0.7-2.3,1.2c-0.8,0.4-1.5,0.9-2.2,1.3c-0.3,0.2-0.7,0.5-1,0.7c-0.3,0.2-0.6,0.4-0.9,0.6c-0.6,0.3-1,0.6-1.4,0.7
					c-0.2,0.1-0.3,0.1-0.4,0.1c-0.1,0-0.2,0-0.2,0s0.1,0,0.2,0.1c0.1,0,0.3,0.1,0.5,0.1c0.4,0,1,0,1.7-0.2c0.3-0.1,0.7-0.2,1.1-0.3
					c0.4-0.1,0.7-0.3,1.1-0.4c0.8-0.3,1.6-0.7,2.4-1.1c0.8-0.4,1.6-0.9,2.3-1.3c0.7-0.4,1.4-0.9,1.9-1.4c0.5-0.5,0.9-0.9,1.1-1.3
					C280.1,315.7,280.1,315.4,280.1,315.4z"/>
				<path class="st1" d="M284.1,322c0,0-0.2,0-0.5,0.2c-0.3,0.1-0.8,0.3-1.3,0.5c-1.1,0.4-2.5,1.1-3.8,1.7c-1.4,0.6-2.7,1.2-3.8,1.6
					c-0.5,0.2-1,0.4-1.3,0.5c-0.3,0.1-0.5,0.2-0.5,0.2s0.2,0.1,0.5,0.1c0.2,0,0.4,0.1,0.6,0.1c0.2,0,0.5,0,0.8,0
					c0.6,0,1.3-0.1,2.1-0.3c0.4-0.1,0.7-0.2,1.1-0.3c0.4-0.1,0.7-0.3,1.1-0.4c0.4-0.2,0.7-0.3,1.1-0.5c0.3-0.2,0.7-0.4,1-0.6
					c0.6-0.4,1.2-0.8,1.6-1.3c0.4-0.4,0.8-0.8,1-1C284,322.1,284.1,322,284.1,322z"/>
			</g>
		</g>
	</g>
	<g>
		<path class="st0" d="M582.8,332.9c0,0,5.5,13.4,0.3,20.7c-5.2,7.3-6.6,9.3-8.9,10.2c-2.2,0.9-5.9,0.1-10.2,0.2
			c-4.3,0.1-5.7,0.5-5.7,0.5l1.7-36.3L582.8,332.9z"/>
		<path class="st2" d="M571.8,363.4c0,0,4.7-4.9,5.2-10.7"/>
		<path class="st2" d="M566.5,363.2c0,0,4.7-4.9,5.2-10.7"/>
		<path class="st2" d="M561.5,363.3c0,0,4.5-5.1,4.7-10.9"/>
		<path class="st3" d="M550.8,226.2c0,0,37.7,33.3,40.1,109.2c0,0-7.3,10.2-31.3,0.5l-12.2-37L550.8,226.2z"/>
	</g>
	<g>
		<path class="st4" d="M382.5,230.1c0,0-6,1.1-13.3,8.5c-7.3,7.5-20.4,24.6-58.3,41.2c0,0-9.4,2.9-7.1,8.7
			c2.3,5.8,8.6,20.7,18.4,20.3c9.8-0.5,24.4-6.1,38.3-15.8c25-17.5,57.1-25.8,63.1-26.9L382.5,230.1z"/>
	</g>
	<g>
		<path class="st5" d="M379.8,341.8c0,0-1.2,39.9,5.2,72.5s12.4,48.9,21.9,48.9c9.5,0,4.5-21.8,2.6-42.2
			c-1.9-20.4-7.4-38.5,9.4-36.7c16.8,1.8,34.5,3.5,49,3c14.5-0.5,52.1-6,58.9-2c6.8,4.1,5.5,18.1,4.2,37.6
			c-1.3,19.5-4.5,39,1.2,39.9c5.7,0.9,20.6-16.8,23.7-48.1c3.1-31.3,3-73.4,3-73.4L379.8,341.8z"/>
		<path class="st6" d="M379.7,346.3l179.1-0.5c0,0,5.7-101.5-6.2-121.6c-4.8-8.1-160.6-8.2-167.4,0.5
			C372.2,241.2,379.7,346.3,379.7,346.3z"/>
		<path class="st7" d="M411,221.8l-25.3,2c0,0,68.4,45.4,81.8,10.8c0,0,14.1,35.5,85.1-10.4l-30.9,0L411,221.8z"/>
		<path class="st8" d="M465.5,250.6l-18.4,72.1c0,0,7.8,17.2,18.6,21.2c0,0,14.5-5,21.7-21.4l-17-72"/>
		<path class="st8" d="M465.9,257.3l-9-8.9c-1.1-1.1-1.1-3,0-4.1l8.9-9c1.1-1.1,3-1.1,4.1,0l9,8.9c1.1,1.1,1.1,3,0,4.1l-8.9,9
			C468.9,258.4,467,258.5,465.9,257.3z"/>
	</g>
	<path class="st1" d="M391.4,151.2c0,6.6-4.8,12-10.9,12.1c-6,0-10.9-5.4-10.9-12c0-6.6,4.8-12,10.9-12.1
		C386.5,139.2,391.4,144.6,391.4,151.2z"/>
	<path class="st1" d="M568.1,150.7c0,6.6-4.8,12-10.9,12.1c-6,0-10.9-5.4-10.9-12c0-6.6,4.8-12,10.9-12.1
		C563.2,138.7,568.1,144.1,568.1,150.7z"/>
	<path class="st0" d="M463.7,81.3c0,0-76.8-11.6-80.3,47.9c-3.5,59.5-4.8,64.5-4.8,78.1c0,13.6,3.2,17.7,26,22.6
		c22.7,4.9,42.3,4,67.2,3.9c25-0.1,63.6-1.1,75.4-6.6c11.8-5.5,14.6-12.8,12.7-35.5c-1.9-22.7-3-37-7.1-58.1
		C545,93.4,552.7,84.7,463.7,81.3z"/>
	<path class="st9" d="M540.5,90.6c0,0,10.8,13.2,11.8,40.2c0,0-28.4-5.2-31-27.2l15.4-14.6L540.5,90.6z"/>
	<g>
		<path class="st10" d="M424.6,140.4c4.3-0.8,8.4,1.9,9.2,6.2c0.8,4.3-1.9,8.4-6.2,9.2c-4.3,0.8-8.4-1.9-9.2-6.2
			C417.5,145.3,420.3,141.2,424.6,140.4z"/>
		<path class="st11" d="M422.7,144.6c1.4-0.3,2.8,0.7,3.1,2.1c0.3,1.4-0.7,2.8-2.1,3.1c-1.4,0.3-2.8-0.7-3.1-2.1
			C420.3,146.2,421.3,144.8,422.7,144.6z"/>
	</g>
	<g>
		<path class="st10" d="M488.4,140.9c3.9-2,8.6-0.5,10.6,3.4c2,3.9,0.5,8.6-3.4,10.6c-3.9,2-8.6,0.5-10.6-3.4
			C483,147.6,484.5,142.9,488.4,140.9z"/>
		<path class="st11" d="M487.7,145.5c1.3-0.7,2.9-0.2,3.6,1.1c0.7,1.3,0.2,2.9-1.1,3.6c-1.3,0.7-2.9,0.2-3.6-1.1
			C485.9,147.7,486.4,146.1,487.7,145.5z"/>
	</g>
	<path class="st11" d="M425,185.4c0,0,23.6,4.5,36.3,4.4c12.7,0,37.7-4.6,37.7-4.6s-12.7,24.6-36.9,24.6
		C437.8,209.9,425,185.4,425,185.4z"/>
	<path class="st2" d="M454.8,167.1c0,0,1.8-3.5,6.6-3.5c4.8,0,7.7,3.5,7.7,3.5"/>
	<g>
		<path class="st12" d="M474.5,4.5c0,2.4-2,4.4-4.4,4.4s-4.4-2-4.4-4.4c0-2.4,2-4.4,4.4-4.4C472.5,0.1,474.5,2.1,474.5,4.5z"/>
		<path class="st13" d="M391.9,81.9c0,0-13-85.3,71.1-78.3c84,7,76.8,17,77.5,87L391.9,81.9z"/>
		<path class="st12" d="M392.8,81.9c0,0-43.9,3.8-31.6,31c12.2,27.2,143.3,18.7,179.1-22.3L392.8,81.9z"/>
		<g>
			<path class="st14" d="M466.2,60.3c-0.9,0-1.9-0.1-2.8-0.2c-6.2-0.8-11.7-3.9-15.5-8.8c-3.8-4.9-5.5-11-4.8-17.2
				c1.4-11.7,11.3-20.5,23.1-20.5c0.9,0,1.9,0.1,2.8,0.2c6.2,0.8,11.7,3.9,15.5,8.8c3.8,4.9,5.5,11,4.8,17.2
				C487.8,51.5,477.9,60.3,466.2,60.3z"/>
			<path class="st11" d="M466.1,14.4c0.9,0,1.8,0.1,2.8,0.2c12.4,1.5,21.3,12.8,19.8,25.3c-1.4,11.5-11.2,19.9-22.5,19.9
				c-0.9,0-1.8-0.1-2.8-0.2C451,58,442.1,46.7,443.6,34.3C445,22.8,454.8,14.4,466.1,14.4 M466.1,13.1L466.1,13.1
				c-12,0-22.2,9-23.7,21c-0.8,6.3,1,12.6,4.9,17.6s9.6,8.2,15.9,9c1,0.1,1.9,0.2,2.9,0.2c12,0,22.2-9,23.7-21
				c0.8-6.3-1-12.6-4.9-17.6c-3.9-5-9.6-8.2-15.9-9C468.1,13.2,467.1,13.1,466.1,13.1L466.1,13.1z"/>
		</g>
		<path class="st11" d="M478.3,32.6c-0.7,5.5-4.6,8.3-10.7,7.5l-5.6-0.7l-0.9,7.4l-4.1-0.5l3-24.4l9.7,1.2
			C475.8,23.9,479,27.3,478.3,32.6z M474.4,32.3c0.4-3.2-1.5-5-5.3-5.5l-5.4-0.7l-1.2,9.7l5.4,0.7C471.7,36.9,474,35.6,474.4,32.3z"
			/>
		<path class="st15" d="M484.3,50.3c-8.8-1.4-20.5,6.7-39.3,3.2l-8.5-6.9l-2.7,0.3c0,0,4.8,11.8,6,12.5c0.9,0.5,2,1.5,3.7,2
			c4.5,1.4,10.2,1.8,16,1.7c-1.8,4.8-5.1,13.2-5.1,13.2s-0.2,0.6,0.2,0.7c0.5,0.1,4.8-0.8,4.8-0.8s0.6-0.3,1.8-1.8
			c1-1.4,6.6-8.7,9.3-12.3c10.6-1.5,19.6-4.4,20.4-6.3C492.1,53.2,486.1,50.6,484.3,50.3z"/>
		<path class="st11" d="M483.8,50.3c0.2,0,0.3,0,0.5,0.1c1.8,0.3,7.8,2.9,6.6,5.5c-0.8,1.9-9.8,4.8-20.4,6.3
			c-2.8,3.7-8.3,11-9.3,12.3c-1.1,1.5-1.8,1.8-1.8,1.8s-4.2,0.9-4.8,0.8c0,0,0,0,0,0c-0.5-0.1-0.2-0.7-0.2-0.7s3.3-8.4,5.1-13.2
			c-3.4,0.1-6.7,0-9.8-0.4c-2.2-0.3-4.4-0.7-6.2-1.3c-1.7-0.5-2.8-1.5-3.7-2c-1.2-0.7-6-12.5-6-12.5l2.7-0.3l8.5,6.9
			c1.1,0.2,2.2,0.4,3.3,0.5C464.8,56.1,475.6,49.3,483.8,50.3 M483.9,49.5c-3.5-0.4-7.5,0.5-12,1.6c-6.2,1.5-14,3.4-23.6,2.2
			c-1-0.1-2-0.3-3-0.5l-8.4-6.8l-0.3-0.2l-0.3,0l-2.7,0.3l-1.1,0.1l0.4,1c0,0,1.2,3,2.5,6c2.8,6.3,3.4,6.7,3.8,6.9
			c0.2,0.1,0.5,0.3,0.8,0.5c0.8,0.5,1.8,1.2,3.1,1.6c1.9,0.6,4,1,6.4,1.3c2.6,0.3,5.5,0.5,8.7,0.4c-1.8,4.8-4.7,12-4.7,12.1
			c-0.1,0.2-0.2,0.7,0,1.2c0.1,0.3,0.4,0.5,0.7,0.6c0,0,0.1,0,0.2,0c0.7,0.1,3.5-0.5,5.1-0.8l0.1,0l0.1,0c0.1-0.1,0.9-0.5,2.1-2
			c1-1.3,6.3-8.3,9.1-12.1c9.3-1.4,19.6-4.2,20.7-6.7c0.3-0.7,0.3-1.5-0.2-2.3c-1.2-2.3-5.5-4-7.1-4.3
			C484.3,49.5,484.1,49.5,483.9,49.5L483.9,49.5z"/>
		<path class="st11" d="M483.5,51.5c0,0,1.2-0.1,2.6,0.6c1.2,0.6,1.5,0.9,1.5,0.9l-3.9,0.3L483.5,51.5z"/>
		<path class="st11" d="M447.6,56.3l-0.7,0.1c-0.1,0-0.2-0.1-0.2-0.2l-0.1-0.9c0-0.1,0.1-0.2,0.2-0.2l0.7-0.1c0.1,0,0.2,0.1,0.2,0.2
			l0.1,0.9C447.7,56.2,447.7,56.3,447.6,56.3z"/>
		<path class="st11" d="M451.1,56.8l-0.7,0.1c-0.1,0-0.2-0.1-0.2-0.2l-0.1-0.9c0-0.1,0.1-0.2,0.2-0.2l0.7-0.1c0.1,0,0.2,0.1,0.2,0.2
			l0.1,0.9C451.2,56.7,451.2,56.7,451.1,56.8z"/>
		<path class="st11" d="M454.7,56.9l-0.8,0.1c-0.1,0-0.2-0.1-0.2-0.2l-0.1-1c0-0.1,0.1-0.2,0.2-0.2l0.8-0.1c0.1,0,0.2,0.1,0.2,0.2
			l0.1,1C454.9,56.8,454.8,56.9,454.7,56.9z"/>
		<path class="st11" d="M458.8,57.1l-0.8,0.1c-0.1,0-0.2-0.1-0.2-0.2l-0.1-1c0-0.1,0.1-0.2,0.2-0.2l0.8-0.1c0.1,0,0.2,0.1,0.2,0.2
			l0.1,1C459,56.9,458.9,57,458.8,57.1z"/>
		<path class="st11" d="M462.8,56.8l-0.9,0.1c-0.1,0-0.2-0.1-0.2-0.2l-0.1-1.1c0-0.1,0.1-0.2,0.2-0.2l0.9-0.1c0.1,0,0.2,0.1,0.2,0.2
			l0.1,1.1C463,56.7,462.9,56.8,462.8,56.8z"/>
		<path class="st11" d="M466.2,56.6l-0.9,0.1c-0.1,0-0.2-0.1-0.2-0.2l-0.1-1.2c0-0.1,0.1-0.2,0.2-0.2l0.9-0.1c0.1,0,0.2,0.1,0.2,0.2
			l0.1,1.2C466.4,56.5,466.3,56.6,466.2,56.6z"/>
		<path class="st11" d="M469.9,56.1l-0.9,0.1c-0.1,0-0.2-0.1-0.2-0.2l-0.1-1.2c0-0.1,0.1-0.2,0.2-0.2l0.9-0.1c0.1,0,0.2,0.1,0.2,0.2
			l0.1,1.2C470.1,56,470.1,56.1,469.9,56.1z"/>
		<path class="st11" d="M473.6,55.5l-0.9,0.1c-0.1,0-0.2-0.1-0.2-0.2l-0.1-1.2c0-0.1,0.1-0.2,0.2-0.2l0.9-0.1c0.1,0,0.2,0.1,0.2,0.2
			l0.1,1.2C473.8,55.4,473.7,55.5,473.6,55.5z"/>
		<path class="st11" d="M477.2,54.5l-0.9,0.1c-0.1,0-0.2-0.1-0.2-0.2l-0.1-1.2c0-0.1,0.1-0.2,0.2-0.2l0.9-0.1c0.1,0,0.2,0.1,0.2,0.2
			l0.1,1.2C477.4,54.3,477.3,54.4,477.2,54.5z"/>
		<path class="st11" d="M480.9,53.6l-0.9,0.1c-0.1,0-0.2-0.1-0.2-0.2l-0.1-1.2c0-0.1,0.1-0.2,0.2-0.2l0.9-0.1c0.1,0,0.2,0.1,0.2,0.2
			l0.1,1.2C481.1,53.5,481,53.6,480.9,53.6z"/>
		<path class="st15" d="M468.2,51.9c0,0-12-8.7-12.2-8.9c-0.2-0.2-0.3-0.2-0.7-0.4c-0.4-0.1-5.2,0.1-5.4,1c-0.2,0.5,8.4,9.8,8.4,9.8
			S465,52.7,468.2,51.9z"/>
		<path class="st11" d="M455.2,42.7C455.2,42.7,455.3,42.7,455.2,42.7c0.5,0.1,0.6,0.2,0.8,0.4c0.2,0.2,12.2,8.9,12.2,8.9
			c-3.2,0.8-9.9,1.5-9.9,1.5s-8.6-9.2-8.4-9.8C450.1,42.8,454.4,42.6,455.2,42.7 M455.3,41.9c-0.1,0-5.7-0.2-6.2,1.6
			c-0.2,0.5-0.2,0.8,4.3,5.8c2.1,2.4,4.3,4.7,4.3,4.7l0.3,0.3l0.4,0c0.3,0,6.8-0.7,10-1.5l1.7-0.4l-1.4-1
			c-3.3-2.4-11.9-8.6-12.2-8.9l-0.1,0c-0.2-0.2-0.4-0.3-0.9-0.5C455.4,41.9,455.4,41.9,455.3,41.9L455.3,41.9z"/>
	</g>
</g>
<g>
	<g>
		<g>
			<path class="st16" d="M70.3,349.1c0,0.6-0.7,8.4-0.6,9.2c0.1,0.7,0.2,1.5,0.8,1.7c0.2,0.1,0.4,0,0.5-0.1c0,0,0.6,0.1,1.1-1.2
				c0.2-0.7,1.2-8.4,1.3-9.1"/>
		</g>
		<g>
			<path class="st17" d="M71.4,360c0.1-0.1,0.2-0.3,0.2-0.5c0-0.3,0.1-0.6,0.1-0.9c0-0.2,0.1-0.5-0.1-0.7c-0.1-0.1-0.2-0.1-0.4-0.2
				c-0.2,0-0.4,0-0.6,0c-0.2,0-0.5,0.1-0.6,0.4c0,0.1,0,0.2,0,0.3c0,0.6,0,1.3,0.6,1.7C70.8,360.2,71.2,360.2,71.4,360"/>
		</g>
	</g>
	<g>
		<g>
			<path class="st16" d="M73.6,350c0,0.6-0.3,6.9-0.1,7.7c0.1,0.7,0.2,1.5,0.8,1.7c0.2,0.1,0.4,0,0.5-0.1c0,0,0.6,0.1,1.1-1.2
				c0.2-0.7,1.1-6.8,1.2-7.4"/>
		</g>
		<g>
			<path class="st17" d="M75.2,359.4c0.1-0.1,0.2-0.3,0.2-0.5c0-0.3,0.1-0.6,0.1-0.9c0-0.2,0.1-0.5-0.1-0.7
				c-0.1-0.1-0.2-0.1-0.4-0.2c-0.2,0-0.4,0-0.6,0c-0.2,0-0.5,0.1-0.6,0.4c0,0.1,0,0.2,0,0.3c0,0.6,0,1.3,0.6,1.7
				C74.6,359.7,75,359.7,75.2,359.4"/>
		</g>
	</g>
	<g>
		<path class="st16" d="M83.5,353.7c-0.4,0.7-0.9,1.4-1.6,1.4c-0.5,0-1-0.4-1.2-0.8c-0.2-0.5-0.3-1-0.3-1.5c0-0.9,0.1-1.8,0.4-2.6
			c0.4-1.3,1-2.8,0.2-3.9c-0.2-0.3-0.5-0.6-0.8-0.8c-2.6-2-5.4-3.5-8.3-5c-2.4-1.4-3.2-1.6-5.2-2.7c-0.2-0.1-0.7-0.2-0.8-0.5
			c-0.1-0.2-0.1-0.6-0.1-0.8c0.2-1.2,0-5.4,0.7-6.4c0.2-0.3,0.3-0.5,0.6-0.6c0.2-0.1,0.5-0.1,0.8-0.1c3.8,0.2,6.6,0.6,10.3,0.8
			c0.1,0.7,0,2.2,0.3,2.8c0.3,0.7,3.9,5.3,4.3,5.9c1.1,1.3,1.6,4.3,3.2,8.6c0.2,0.4,0.2,1,0.1,1.4c-0.1,0.4-0.3,0.8-0.5,1.1
			C84.9,351.2,84.2,352.4,83.5,353.7z"/>
	</g>
	<path class="st17" d="M84.3,352.2c-0.3-0.1-0.5-0.1-0.8,0.1c-0.4,0.3-0.8,0.9-1,1.3c-0.2,0.4-0.6,1-0.8,1.4
		c0.1,0.2,0.3,0.5,0.5,0.7c0,0,0.1,0,0.1,0c0,0,0.1,0,0.1-0.1C83.1,354.8,84.1,353.5,84.3,352.2z"/>
	<path class="st16" d="M63.7,348.6c0,0-0.4-9.6,3.2-19.5c3.6-9.9,11.5,1.6,11.5,1.6l3.8,9.3c0,0-3.6,7.9-5.2,11"/>
	<g>
		<path class="st18" d="M93.5,239.4c0,0-22.7,7.2-31.2,90.5c0,0,4.3,8.8,20.5,1.3c0,0,1.8-27.1,3.4-36c1.7-9.6,10.1-37.6,10.1-37.6
			L93.5,239.4z"/>
	</g>
	<g>
		<path class="st18" d="M189.2,236.8c0,0,5.8,2,12.6,8.4s18.8,20.2,54.7,39.2c0,0,9,3.9,6.6,7.1c-2.4,3.2-9.1,11.4-18.6,8.9
			c-9.5-2.5-23.4-9.3-36.4-18.5c-23.5-16.7-54.2-29.1-59.9-31.1L189.2,236.8z"/>
	</g>
	<path class="st19" d="M99.5,364.7c0,0-1.8,33.8,1.4,61.6s6.4,41.8,12.2,41.9c5.8,0.2,3.3-18.4,2.7-35.7c-0.6-17.3-3.6-32.8,6.7-31
		c10.3,1.8,21.1,3.7,30,3.5c8.9-0.1,9.1-2,13.2,1.6c4.1,3.6,2.9,15.5,1.6,32c-1.3,16.5-3.7,33-0.2,33.9c3.5,0.9,13.1-13.9,15.7-40.4
		c2.7-26.5,3.7-62.3,3.7-62.3l-31.6-10.2l-42.8,5.8L99.5,364.7z"/>
	<g>
		<g>
			<path class="st18" d="M117.9,326.1c-1.3-6.1-25.6-86.4-18.7-88.3c16-4.4,46.8-10.8,74.7-5.2c8.3,1.7-7.8,97.5-7.8,97.5
				L117.9,326.1z"/>
		</g>
		<path class="st20" d="M189.7,256.2l3.3-17.5c-6-2.8-12.4-4.8-19-6.1l-33.8,70.2L108,235.6c-6,1.4-11,2.8-14.4,3.8l2.7,15.7
			c0,0-17.3,21.1,6.6,41l9.9,28.5l-17,51l39.3,4.8l7.6-13.7l7.9,14.2c0,0,30.5,0.1,38.1-10.8L172,324.4l9.9-29
			C181.9,295.4,201.2,282.8,189.7,256.2z"/>
		<g>
			<path class="st21" d="M142.6,265.8c0,1.7-1.1,3-2.5,3c-1.4,0-2.5-1.4-2.5-3s1.1-3,2.5-3C141.5,262.8,142.6,264.1,142.6,265.8z"/>
			<path class="st21" d="M142.6,282.7c0,1.7-1.1,3-2.5,3c-1.4,0-2.5-1.4-2.5-3c0-1.7,1.1-3,2.5-3
				C141.5,279.7,142.6,281.1,142.6,282.7z"/>
		</g>
	</g>
	<g>
		<path class="st22" d="M84,61.4c0,0-9.2-33.7-41.4-25.6S-18.9,94,17.7,134.3s0.7,49.8-8.4,45.1c0,0,6.2,14.3,23.1,11.4
			s39.6-16.1,30.4-49.5S76,87.4,76,87.4L84,61.4z"/>
		<path class="st23" d="M190.7,206.8c2.2-26.7,4.8-41.4-5.7-60.1c-5.4-9.6-14.5-9.4-24.2-14.4c-6.7-3.5-13.3-7.2-19.9-10.9l4.9-68.1
			c0,0,8.6-5.5,22.2-3.6c12.8,0.8,42.5,9,49.8,59.2C224,151.5,201.3,196.2,190.7,206.8z"/>
		<path class="st24" d="M156,224.5l-0.2-37.1h-30.1l1.9,42.7c1,9.9,11,11.9,15.3,11.9C151.3,242,155.2,238.7,156,224.5z"/>
		<g>
			<path class="st25" d="M195.9,123.6c0,0,11.5,77-33.5,88.8c-31.9,8.4-77.5-21.1-74.9-71c2.6-49.9,34.5-71.8,57-70.7
				C166.9,71.9,190.5,89,195.9,123.6z"/>
			<path class="st26" d="M159.7,155.7c2,2.5,4.3,5,7.1,6.6c-1.4,1.7-2.9,3.5-4.3,5.2"/>
			<path class="st27" d="M184.2,149.9c-0.1,3.4-2.6,6.1-5.6,5.9c-3-0.2-5.3-3.1-5.2-6.6c0.1-3.4,2.6-6.1,5.6-5.9
				C182,143.5,184.3,146.5,184.2,149.9z"/>
			<path class="st27" d="M133.3,150.8c-0.1,3.6-2.6,6.3-5.6,6.1c-3-0.2-5.3-3.2-5.2-6.8c0.1-3.6,2.6-6.3,5.6-6.1
				C131.1,144.2,133.4,147.2,133.3,150.8z"/>
		</g>
		<g>
			<path class="st28" d="M165.1,120.8c1-2.6,3.2-4.8,5.9-6.2c2.6-1.3,5.7-1.9,8.7-1.6c3,0.3,5.9,1.5,8.2,3.3c2.3,1.9,4,4.4,4.6,7.1
				c-2-1.9-4.1-3.5-6.3-4.6c-2.2-1.1-4.5-1.8-6.9-2c-2.4-0.3-4.8-0.1-7.2,0.5C169.7,118,167.4,119.2,165.1,120.8z"/>
		</g>
		<g>
			<path class="st29" d="M133.6,181.2c0,0,26.6-10.6,35.9,0H133.6z"/>
			<path class="st17" d="M133.6,181.2c0,0,8.8,17.3,22.4,16.3c15.9-1.2,13.5-16.3,13.5-16.3H133.6z"/>
			<path class="st11" d="M133.6,181.2h35.9C169.5,181.2,161.6,205,133.6,181.2z"/>
		</g>
		<path class="st23" d="M76.1,67.7c22.7-20.9,76.7-40.8,84.8,0.8c0,0-2.3,57-62.4,75.5c1.5,5.9,1.7,14.2-3,24.1c0,0-3.7-15-12.5-22
			c-3.2-1.8-1.3,3.2-5.9,9.8C72,139.9,53.4,88.5,76.1,67.7z"/>
		<g>
			<path class="st28" d="M112.1,127.2c0.9-2.7,2.7-5.2,5-7.1c2.3-1.9,5-3.4,8.1-4c3-0.6,6.3-0.3,9.1,1c2.8,1.3,5,3.6,6.2,6.2
				c-2.4-1.6-4.8-2.8-7.2-3.3c-2.4-0.6-4.9-0.6-7.3-0.1c-2.4,0.5-4.8,1.4-7.1,2.7C116.5,123.8,114.3,125.4,112.1,127.2z"/>
		</g>
	</g>
	<g>
		<path class="st21" d="M116.6,236.3c-1.4-3.1,10.7-14.4,10.7-14.4s6.6,15.3,14.3,20l-12.8,17.7
			C128.7,259.6,123.1,250.3,116.6,236.3z"/>
		<path class="st21" d="M166.7,236.3c1.4-3.1-10.7-14.9-10.7-14.9s-6.6,15.9-14.3,20.5l12.8,17.7
			C154.5,259.6,160.1,250.3,166.7,236.3z"/>
	</g>
	<path class="st25" d="M88.9,157c0,0,0.2-16.7-8.8-13.2c-9,3.5-1.4,25.8,11.9,20.6L88.9,157z"/>
	<path class="st11" d="M130.9,148.7c-1.3-0.7-2.9-0.2-3.6,1.1s-0.2,2.9,1.1,3.6c1.3,0.7,2.9,0.2,3.6-1.1S132.2,149.4,130.9,148.7z"
		/>
	<path class="st11" d="M181.8,148.1c-1.3-0.7-2.9-0.2-3.6,1.1c-0.7,1.3-0.2,2.9,1.1,3.6c1.3,0.7,2.9,0.2,3.6-1.1
		C183.6,150.3,183.1,148.7,181.8,148.1z"/>
	<g>
		<g>
			<path class="st16" d="M292.3,297.7c0.5,0.8,1.1,1.8,0.6,2.7c-0.3,0.6-1,0.9-1.7,0.9c-0.7,0-1.3-0.3-1.9-0.6c-1-0.5-2-1.2-2.8-2
				c-1.3-1.2-2.7-2.7-4.4-2.5c-0.5,0.1-1,0.3-1.4,0.5c-3.8,1.8-7.2,4.2-10.6,6.5c-3,2-3.8,2.7-6.1,4.3c-0.3,0.2-0.7,0.7-1,0.6
				c-0.2,0-0.7-0.2-0.9-0.4c-1.2-0.9-6.2-3.2-7-4.5c-0.2-0.3-0.4-0.7-0.4-1.1c0-0.3,0.2-0.7,0.4-1c2.5-4.2,4.5-7.2,7-11.4
				c0.8,0.3,2.5,1.3,3.4,1.4c1,0.1,8.3-1.3,9.3-1.5c2.2-0.5,5.8,0.6,11.7,1.3c0.6,0.1,1.2,0.4,1.7,0.7c0.4,0.3,0.7,0.8,1,1.2
				C290.2,294.5,291.2,296.1,292.3,297.7z"/>
		</g>
		<path class="st17" d="M291.1,295.9c-0.3,0.3-0.4,0.5-0.3,1c0.1,0.6,0.6,1.5,0.9,2c0.3,0.5,0.8,1.3,1.1,1.7c0.3,0,0.7,0,1-0.1
			c0,0,0.1,0,0.1-0.1c0,0,0-0.1,0-0.1C293.4,298.7,292.3,296.9,291.1,295.9z"/>
		<g>
			<g>
				<path class="st16" d="M295.2,313.3c0.6-0.2,1.4-0.1,2,0.3c0.6,0.4,1.2,0.8,1.8,1.3c0.9,0.9,1.7,1.9,2.6,2.9
					c0.7,0.8,1.3,1.5,1.7,2.5c0.3,1,0,1.9-0.8,2.5c-0.7,0.6-1.6,1-2.5,0.6s-1.4-1.2-2-1.8c-0.6-0.5-1.4-1.7-1.9-2.3
					c-0.6-0.8-0.9-1.3-1.3-2.2c-0.3-0.7-0.6-1.3-0.5-2.1C294.2,314.3,294.4,313.6,295.2,313.3z"/>
				<path class="st16" d="M291.5,318c-0.4,0.4-0.8,0.8-0.9,1.3c-0.1,0.4-0.1,0.9,0.1,1.2c0.8,1.8,1.8,3,3.1,4.3
					c0.6,0.6,1.2,1.5,2.1,1.5c0.5,0,1-0.2,1.5-0.4c0.5-0.3,1-0.6,1.2-1.2c0.3-0.6,0.1-1.3-0.2-1.9c-0.3-0.6-0.8-1-1.2-1.5
					C297.1,321.4,293,316.6,291.5,318z"/>
				<path class="st16" d="M291.1,322.2c0.6,0.6,1.5,1.5,2,2.2c0.4,0.6,0.8,1.2,1,1.8c0.2,0.7,0.1,1.7-0.5,2.1
					c-0.9,0.7-1.6,0.7-2.6,0.2c-1-0.6-1.3-1.3-1.8-2.3c-0.4-0.7-0.7-1.4-1-2.4c-0.3-0.9-0.3-1.5,0.2-2.1c0.2-0.2,0.4-0.2,0.7-0.2
					C289.1,321.5,289.7,321,291.1,322.2z"/>
				<path class="st16" d="M301,317c-0.3-0.4-0.7-1.1-0.9-1.6c-0.2-0.6-0.3-1.1-0.1-1.7c0.5-1,0.8-1.2,1.9-0.8c1,0.4,3,1.8,3.7,2.6
					c0.4,0.5,0.6,0.7,0.7,1.3c0.1,0.9-0.7,1.8-1.6,2c-0.9,0.3-1.9,0-2.6-0.6C301.6,318,301.3,317.4,301,317z"/>
			</g>
			<path class="st17" d="M295.2,312.8c0.3,0,0.6,0.2,0.9,0.4c0.4,0.3,0.8,0.7,1.2,1c0.3,0.3,0.7,0.6,0.7,1.1c0,0.2-0.2,0.4-0.3,0.6
				c-0.2,0.3-0.5,0.5-0.9,0.7c-0.4,0.2-0.8,0.4-1.2,0.2c-0.1-0.1-0.2-0.2-0.3-0.3c-0.7-0.8-1.5-1.8-1.1-3
				C294.1,313.1,294.6,312.7,295.2,312.8z"/>
			<path class="st17" d="M300.3,312.2c0.3,0,0.5,0.1,0.8,0.3c0.3,0.2,0.7,0.5,1,0.7c0.3,0.2,0.9,0.9,0.9,1.2c0,0.2-0.1,0.4-0.2,0.5
				c-0.2,0.3-0.4,0.5-0.6,0.7c-0.3,0.2-0.6,0.4-0.9,0.3c-0.1,0-0.2-0.1-0.3-0.2c-0.6-0.6-1.6-1.7-1.5-2.7
				C299.5,312.5,299.8,312.2,300.3,312.2z"/>
			<path class="st17" d="M291.5,317.6c0.3,0,0.6,0.2,0.9,0.4c0.4,0.3,0.8,0.6,1.2,0.9c0.3,0.3,0.7,0.6,0.7,1c0,0.2-0.1,0.4-0.3,0.6
				c-0.2,0.3-0.5,0.6-0.8,0.8c-0.3,0.2-0.8,0.4-1.1,0.3c-0.1-0.1-0.3-0.2-0.4-0.3c-0.7-0.7-1.5-1.6-1.3-2.9
				C290.5,318,291,317.6,291.5,317.6z"/>
			<g>
				<path class="st17" d="M289.4,321.2c0.2,0.1,0.4,0.3,0.6,0.5c0.2,0.3,0.5,0.6,0.7,0.9c0.2,0.3,0.4,0.6,0.3,0.9
					c-0.1,0.2-0.2,0.3-0.3,0.4c-0.2,0.2-0.5,0.3-0.7,0.4c-0.3,0.1-0.7,0.2-0.9-0.1c-0.1-0.1-0.1-0.2-0.2-0.3
					c-0.3-0.7-0.8-1.5-0.3-2.4C288.6,321.2,289,321,289.4,321.2"/>
			</g>
		</g>
	</g>
	<g>
		<path class="st21" d="M260.9,284.9c0.5,0.4,1,0.9,1.6,1.4c0,0,3.7,2.4,1.8,5.9c-2,3.5-7.4,12.5-11.7,11.6
			c-1.4-0.3-2.9-0.8-4.4-1.9C246.1,300.6,258.5,283.1,260.9,284.9z"/>
	</g>
	<g>
		<g>
			<path class="st16" d="M63.7,348.4c0,0.6-0.7,6.8-0.5,7.6c0.1,0.7,0.2,1.5,0.8,1.7c0.2,0.1,0.4,0,0.5-0.1c0,0,0.6,0.1,1.1-1.2
				c0.2-0.7,1.3-7,1.4-7.6"/>
		</g>
		<g>
			<path class="st17" d="M64.8,357.7c0.1-0.1,0.2-0.3,0.2-0.5c0-0.3,0.1-0.6,0.1-0.9c0-0.2,0.1-0.5-0.1-0.7
				c-0.1-0.1-0.2-0.1-0.4-0.2c-0.2,0-0.4,0-0.6,0c-0.2,0-0.5,0.1-0.6,0.4c0,0.1,0,0.2,0,0.3c0,0.6,0,1.3,0.6,1.7
				C64.2,358,64.6,358,64.8,357.7"/>
		</g>
	</g>
	<g>
		<g>
			<path class="st16" d="M67,348.8c0,0.6-0.8,7.9-0.6,8.7c0.1,0.7,0.2,1.5,0.8,1.7c0.2,0.1,0.4,0,0.5-0.1c0,0,0.6,0.1,1.1-1.2
				c0.2-0.7,1.2-7.7,1.4-8.3"/>
		</g>
		<g>
			<path class="st17" d="M68,359.2c0.1-0.1,0.2-0.3,0.2-0.5c0-0.3,0.1-0.6,0.1-0.9c0-0.2,0.1-0.5-0.1-0.7c-0.1-0.1-0.2-0.1-0.4-0.2
				c-0.2,0-0.4,0-0.6,0c-0.2,0-0.5,0.1-0.6,0.4c0,0.1,0,0.2,0,0.3c0,0.6,0,1.3,0.6,1.7C67.5,359.4,67.8,359.4,68,359.2"/>
		</g>
	</g>
	<g>
		<path class="st21" d="M85.3,327.6c-0.1,0.8-0.3,1.6-0.4,2.4c0,0,0.1,5.1-4.6,5.4c-4.7,0.3-16.8,0.8-18.7-4c-0.6-1.5-1.1-3.4-1-5.5
			C60.7,323.2,85.6,324.2,85.3,327.6z"/>
	</g>
	<path class="st30" d="M144.4,324.8c0,1.9-1.5,3.4-3.4,3.4c-1.9,0-3.4-1.5-3.4-3.4c0-1.9,1.5-3.4,3.4-3.4
		C142.9,321.4,144.4,322.9,144.4,324.8z"/>
	<path class="st30" d="M144.4,343.7c0,1.9-1.5,3.4-3.4,3.4c-1.9,0-3.4-1.5-3.4-3.4c0-1.9,1.5-3.4,3.4-3.4
		C142.9,340.4,144.4,341.9,144.4,343.7z"/>
</g>
</svg>
