<?xml version="1.0" encoding="utf-8"?>
<!-- Generator: Adobe Illustrator 23.0.2, SVG Export Plug-In . SVG Version: 6.00 Build 0)  -->
<svg version="1.1" id="Layer_1" xmlns="http://www.w3.org/2000/svg" xmlns:xlink="http://www.w3.org/1999/xlink" x="0px" y="0px"
	 viewBox="0 0 26.8 22" style="enable-background:new 0 0 26.8 22;" xml:space="preserve">
<style type="text/css">
	.st0{fill:#FFFFFF;}
</style>
<path class="st0" d="M18.6,0c1.6,0,3,0.6,4.1,1.8c0.3-0.1,2.1-0.5,3.4-1.4c0,0-0.6,2.1-2.2,3c0,0,1.6-0.2,3-0.8c0,0-1.4,1.9-2.6,2.7
	c0,0.1,0,0.2,0,0.3c0,0.1,0,0.2,0,0.2c0,0.1,0,0.1,0,0.2c0,4.2-1.7,8.3-4.7,11.2c-3,3-7,4.7-11.2,4.7c-2.9,0-5.8-0.8-8.3-2.4
	c5,0.3,8-2.4,8-2.4c-4.3-0.3-5.1-3.9-5.1-3.9c1.3,0.2,2.5-0.1,2.5-0.1c-4.6-1.2-4.4-5.5-4.4-5.5c1,0.6,2.5,0.7,2.5,0.7
	C-0.9,5.2,1.7,1,1.7,1c4.5,5.5,10.4,5.9,11.4,5.9C13,6.5,13,6.1,13,5.6c0-1.5,0.6-2.9,1.7-4C15.7,0.6,17.1,0,18.6,0L18.6,0z"/>
</svg>
